ISO-10303-21;
HEADER;
/* Generated by software containing ST-Developer
 * from STEP Tools, Inc. (www.steptools.com) 
 */

FILE_DESCRIPTION(
/* description */ (''),
/* implementation_level */ '2;1');

FILE_NAME(
/* name */ '306SM0141-A.stp',
/* time_stamp */ '2026-09-07T18:46:42+09:00',
/* author */ ('\X2\BC15C77CC6A9\X0\'),
/* organization */ (''),
/* preprocessor_version */ 'ST-DEVELOPER v20.1',
/* originating_system */ 'Autodesk Inventor 2026',
/* authorisation */ '');

FILE_SCHEMA (('AUTOMOTIVE_DESIGN { 1 0 10303 214 3 1 1 }'));
ENDSEC;

DATA;
#10=MECHANICAL_DESIGN_GEOMETRIC_PRESENTATION_REPRESENTATION('',(#13),#352);
#11=SHAPE_REPRESENTATION_RELATIONSHIP('SRR','None',#359,#12);
#12=ADVANCED_BREP_SHAPE_REPRESENTATION('',(#14),#351);
#13=STYLED_ITEM('',(#369),#14);
#14=MANIFOLD_SOLID_BREP('Solid2',#188);
#15=CONICAL_SURFACE('',#234,10.,0.785398163397448);
#16=CONICAL_SURFACE('',#235,28.,0.78539816339745);
#17=CONICAL_SURFACE('',#236,27.,0.785398163397448);
#18=FACE_BOUND('',#43,.T.);
#19=FACE_BOUND('',#44,.T.);
#20=FACE_BOUND('',#45,.T.);
#21=FACE_BOUND('',#48,.T.);
#22=FACE_BOUND('',#49,.T.);
#23=FACE_BOUND('',#50,.T.);
#24=FACE_BOUND('',#51,.T.);
#25=PLANE('',#217);
#26=PLANE('',#219);
#27=PLANE('',#226);
#28=FACE_OUTER_BOUND('',#39,.T.);
#29=FACE_OUTER_BOUND('',#40,.T.);
#30=FACE_OUTER_BOUND('',#41,.T.);
#31=FACE_OUTER_BOUND('',#42,.T.);
#32=FACE_OUTER_BOUND('',#46,.T.);
#33=FACE_OUTER_BOUND('',#47,.T.);
#34=FACE_OUTER_BOUND('',#52,.T.);
#35=FACE_OUTER_BOUND('',#53,.T.);
#36=FACE_OUTER_BOUND('',#54,.T.);
#37=FACE_OUTER_BOUND('',#55,.T.);
#38=FACE_OUTER_BOUND('',#56,.T.);
#39=EDGE_LOOP('',(#126,#127,#128,#129));
#40=EDGE_LOOP('',(#130,#131,#132,#133));
#41=EDGE_LOOP('',(#134));
#42=EDGE_LOOP('',(#135));
#43=EDGE_LOOP('',(#136));
#44=EDGE_LOOP('',(#137));
#45=EDGE_LOOP('',(#138));
#46=EDGE_LOOP('',(#139,#140,#141,#142,#143));
#47=EDGE_LOOP('',(#144));
#48=EDGE_LOOP('',(#145));
#49=EDGE_LOOP('',(#146));
#50=EDGE_LOOP('',(#147));
#51=EDGE_LOOP('',(#148));
#52=EDGE_LOOP('',(#149,#150,#151,#152,#153));
#53=EDGE_LOOP('',(#154,#155,#156,#157));
#54=EDGE_LOOP('',(#158,#159,#160,#161,#162));
#55=EDGE_LOOP('',(#163,#164,#165,#166));
#56=EDGE_LOOP('',(#167,#168,#169,#170,#171));
#57=LINE('',#304,#65);
#58=LINE('',#310,#66);
#59=LINE('',#326,#67);
#60=LINE('',#340,#68);
#61=LINE('',#342,#69);
#62=LINE('',#344,#70);
#63=LINE('',#346,#71);
#64=LINE('',#348,#72);
#65=VECTOR('',#243,4.5);
#66=VECTOR('',#250,4.5);
#67=VECTOR('',#269,28.);
#68=VECTOR('',#286,11.);
#69=VECTOR('',#289,4.5);
#70=VECTOR('',#292,10.);
#71=VECTOR('',#295,28.);
#72=VECTOR('',#298,27.);
#73=CIRCLE('',#212,4.5);
#74=CIRCLE('',#213,4.5);
#75=CIRCLE('',#215,4.5);
#76=CIRCLE('',#216,4.5);
#77=CIRCLE('',#218,10.);
#78=CIRCLE('',#220,27.);
#79=CIRCLE('',#221,4.5);
#80=CIRCLE('',#223,28.);
#81=CIRCLE('',#224,28.);
#82=CIRCLE('',#225,28.);
#83=CIRCLE('',#227,27.);
#84=CIRCLE('',#228,4.5);
#85=CIRCLE('',#229,11.);
#86=CIRCLE('',#231,11.);
#87=CIRCLE('',#232,11.);
#88=VERTEX_POINT('',#301);
#89=VERTEX_POINT('',#303);
#90=VERTEX_POINT('',#307);
#91=VERTEX_POINT('',#309);
#92=VERTEX_POINT('',#313);
#93=VERTEX_POINT('',#316);
#94=VERTEX_POINT('',#318);
#95=VERTEX_POINT('',#321);
#96=VERTEX_POINT('',#322);
#97=VERTEX_POINT('',#325);
#98=VERTEX_POINT('',#329);
#99=VERTEX_POINT('',#331);
#100=VERTEX_POINT('',#333);
#101=VERTEX_POINT('',#336);
#102=VERTEX_POINT('',#337);
#103=EDGE_CURVE('',#88,#88,#73,.T.);
#104=EDGE_CURVE('',#88,#89,#57,.T.);
#105=EDGE_CURVE('',#89,#89,#74,.T.);
#106=EDGE_CURVE('',#90,#90,#75,.T.);
#107=EDGE_CURVE('',#90,#91,#58,.T.);
#108=EDGE_CURVE('',#91,#91,#76,.T.);
#109=EDGE_CURVE('',#92,#92,#77,.F.);
#110=EDGE_CURVE('',#93,#93,#78,.F.);
#111=EDGE_CURVE('',#94,#94,#79,.T.);
#112=EDGE_CURVE('',#95,#96,#80,.T.);
#113=EDGE_CURVE('',#96,#95,#81,.T.);
#114=EDGE_CURVE('',#95,#97,#59,.T.);
#115=EDGE_CURVE('',#97,#97,#82,.T.);
#116=EDGE_CURVE('',#98,#98,#83,.F.);
#117=EDGE_CURVE('',#99,#99,#84,.T.);
#118=EDGE_CURVE('',#100,#100,#85,.T.);
#119=EDGE_CURVE('',#101,#102,#86,.T.);
#120=EDGE_CURVE('',#102,#101,#87,.T.);
#121=EDGE_CURVE('',#101,#100,#60,.T.);
#122=EDGE_CURVE('',#94,#99,#61,.T.);
#123=EDGE_CURVE('',#102,#92,#62,.T.);
#124=EDGE_CURVE('',#97,#93,#63,.T.);
#125=EDGE_CURVE('',#96,#98,#64,.T.);
#126=ORIENTED_EDGE('',*,*,#103,.F.);
#127=ORIENTED_EDGE('',*,*,#104,.T.);
#128=ORIENTED_EDGE('',*,*,#105,.T.);
#129=ORIENTED_EDGE('',*,*,#104,.F.);
#130=ORIENTED_EDGE('',*,*,#106,.F.);
#131=ORIENTED_EDGE('',*,*,#107,.T.);
#132=ORIENTED_EDGE('',*,*,#108,.T.);
#133=ORIENTED_EDGE('',*,*,#107,.F.);
#134=ORIENTED_EDGE('',*,*,#109,.T.);
#135=ORIENTED_EDGE('',*,*,#110,.T.);
#136=ORIENTED_EDGE('',*,*,#111,.T.);
#137=ORIENTED_EDGE('',*,*,#103,.T.);
#138=ORIENTED_EDGE('',*,*,#106,.T.);
#139=ORIENTED_EDGE('',*,*,#112,.T.);
#140=ORIENTED_EDGE('',*,*,#113,.T.);
#141=ORIENTED_EDGE('',*,*,#114,.T.);
#142=ORIENTED_EDGE('',*,*,#115,.T.);
#143=ORIENTED_EDGE('',*,*,#114,.F.);
#144=ORIENTED_EDGE('',*,*,#116,.T.);
#145=ORIENTED_EDGE('',*,*,#117,.F.);
#146=ORIENTED_EDGE('',*,*,#118,.F.);
#147=ORIENTED_EDGE('',*,*,#105,.F.);
#148=ORIENTED_EDGE('',*,*,#108,.F.);
#149=ORIENTED_EDGE('',*,*,#119,.T.);
#150=ORIENTED_EDGE('',*,*,#120,.T.);
#151=ORIENTED_EDGE('',*,*,#121,.T.);
#152=ORIENTED_EDGE('',*,*,#118,.T.);
#153=ORIENTED_EDGE('',*,*,#121,.F.);
#154=ORIENTED_EDGE('',*,*,#111,.F.);
#155=ORIENTED_EDGE('',*,*,#122,.T.);
#156=ORIENTED_EDGE('',*,*,#117,.T.);
#157=ORIENTED_EDGE('',*,*,#122,.F.);
#158=ORIENTED_EDGE('',*,*,#119,.F.);
#159=ORIENTED_EDGE('',*,*,#120,.F.);
#160=ORIENTED_EDGE('',*,*,#123,.T.);
#161=ORIENTED_EDGE('',*,*,#109,.F.);
#162=ORIENTED_EDGE('',*,*,#123,.F.);
#163=ORIENTED_EDGE('',*,*,#115,.F.);
#164=ORIENTED_EDGE('',*,*,#124,.T.);
#165=ORIENTED_EDGE('',*,*,#110,.F.);
#166=ORIENTED_EDGE('',*,*,#124,.F.);
#167=ORIENTED_EDGE('',*,*,#112,.F.);
#168=ORIENTED_EDGE('',*,*,#113,.F.);
#169=ORIENTED_EDGE('',*,*,#125,.T.);
#170=ORIENTED_EDGE('',*,*,#116,.F.);
#171=ORIENTED_EDGE('',*,*,#125,.F.);
#172=CYLINDRICAL_SURFACE('',#211,4.5);
#173=CYLINDRICAL_SURFACE('',#214,4.5);
#174=CYLINDRICAL_SURFACE('',#222,28.);
#175=CYLINDRICAL_SURFACE('',#230,11.);
#176=CYLINDRICAL_SURFACE('',#233,4.5);
#177=ADVANCED_FACE('',(#28),#172,.F.);
#178=ADVANCED_FACE('',(#29),#173,.F.);
#179=ADVANCED_FACE('',(#30),#25,.F.);
#180=ADVANCED_FACE('',(#31,#18,#19,#20),#26,.F.);
#181=ADVANCED_FACE('',(#32),#174,.T.);
#182=ADVANCED_FACE('',(#33,#21,#22,#23,#24),#27,.F.);
#183=ADVANCED_FACE('',(#34),#175,.T.);
#184=ADVANCED_FACE('',(#35),#176,.F.);
#185=ADVANCED_FACE('',(#36),#15,.T.);
#186=ADVANCED_FACE('',(#37),#16,.T.);
#187=ADVANCED_FACE('',(#38),#17,.T.);
#188=CLOSED_SHELL('',(#177,#178,#179,#180,#181,#182,#183,#184,#185,#186,
#187));
#189=DERIVED_UNIT_ELEMENT(#192,1.);
#190=DERIVED_UNIT_ELEMENT(#354,-3.);
#191=DIMENSIONAL_EXPONENTS(0.,1.,0.,0.,0.,0.,0.);
#192=(
CONVERSION_BASED_UNIT('gram',#194)
MASS_UNIT()
NAMED_UNIT(#191)
);
#193=(
MASS_UNIT()
NAMED_UNIT(*)
SI_UNIT(.KILO.,.GRAM.)
);
#194=MASS_MEASURE_WITH_UNIT(MASS_MEASURE(0.001),#193);
#195=DERIVED_UNIT((#189,#190));
#196=MEASURE_REPRESENTATION_ITEM('density measure',
POSITIVE_RATIO_MEASURE(1.),#195);
#197=PROPERTY_DEFINITION_REPRESENTATION(#202,#199);
#198=PROPERTY_DEFINITION_REPRESENTATION(#203,#200);
#199=REPRESENTATION('material name',(#201),#351);
#200=REPRESENTATION('density',(#196),#351);
#201=DESCRIPTIVE_REPRESENTATION_ITEM('\X2\C77CBC18\X0\','\X2\C77CBC18\X0\');
#202=PROPERTY_DEFINITION('material property','material name',#361);
#203=PROPERTY_DEFINITION('material property','density of part',#361);
#204=DATE_TIME_ROLE('creation_date');
#205=APPLIED_DATE_AND_TIME_ASSIGNMENT(#206,#204,(#361));
#206=DATE_AND_TIME(#207,#208);
#207=CALENDAR_DATE(2026,7,9);
#208=LOCAL_TIME(0,0,0.,#209);
#209=COORDINATED_UNIVERSAL_TIME_OFFSET(0,0,.BEHIND.);
#210=AXIS2_PLACEMENT_3D('',#299,#237,#238);
#211=AXIS2_PLACEMENT_3D('',#300,#239,#240);
#212=AXIS2_PLACEMENT_3D('',#302,#241,#242);
#213=AXIS2_PLACEMENT_3D('',#305,#244,#245);
#214=AXIS2_PLACEMENT_3D('',#306,#246,#247);
#215=AXIS2_PLACEMENT_3D('',#308,#248,#249);
#216=AXIS2_PLACEMENT_3D('',#311,#251,#252);
#217=AXIS2_PLACEMENT_3D('',#312,#253,#254);
#218=AXIS2_PLACEMENT_3D('',#314,#255,#256);
#219=AXIS2_PLACEMENT_3D('',#315,#257,#258);
#220=AXIS2_PLACEMENT_3D('',#317,#259,#260);
#221=AXIS2_PLACEMENT_3D('',#319,#261,#262);
#222=AXIS2_PLACEMENT_3D('',#320,#263,#264);
#223=AXIS2_PLACEMENT_3D('',#323,#265,#266);
#224=AXIS2_PLACEMENT_3D('',#324,#267,#268);
#225=AXIS2_PLACEMENT_3D('',#327,#270,#271);
#226=AXIS2_PLACEMENT_3D('',#328,#272,#273);
#227=AXIS2_PLACEMENT_3D('',#330,#274,#275);
#228=AXIS2_PLACEMENT_3D('',#332,#276,#277);
#229=AXIS2_PLACEMENT_3D('',#334,#278,#279);
#230=AXIS2_PLACEMENT_3D('',#335,#280,#281);
#231=AXIS2_PLACEMENT_3D('',#338,#282,#283);
#232=AXIS2_PLACEMENT_3D('',#339,#284,#285);
#233=AXIS2_PLACEMENT_3D('',#341,#287,#288);
#234=AXIS2_PLACEMENT_3D('',#343,#290,#291);
#235=AXIS2_PLACEMENT_3D('',#345,#293,#294);
#236=AXIS2_PLACEMENT_3D('',#347,#296,#297);
#237=DIRECTION('axis',(0.,0.,1.));
#238=DIRECTION('refdir',(1.,0.,0.));
#239=DIRECTION('center_axis',(3.06151588455595E-17,-1.,-3.20325548531815E-16));
#240=DIRECTION('ref_axis',(-0.866025403784439,-1.86676279567058E-16,0.5));
#241=DIRECTION('center_axis',(3.06151588455595E-17,-1.,-3.20325548531815E-16));
#242=DIRECTION('ref_axis',(-0.866025403784439,-1.86676279567058E-16,0.5));
#243=DIRECTION('',(3.06151588455595E-17,-1.,-3.20325548531815E-16));
#244=DIRECTION('center_axis',(0.,-1.,-3.73352559134116E-16));
#245=DIRECTION('ref_axis',(-0.5,3.23332800778076E-16,-0.866025403784439));
#246=DIRECTION('center_axis',(3.06151588455594E-17,-1.,-4.26379569736416E-16));
#247=DIRECTION('ref_axis',(0.866025403784439,-1.86676279567058E-16,0.5));
#248=DIRECTION('center_axis',(3.06151588455594E-17,-1.,-4.26379569736416E-16));
#249=DIRECTION('ref_axis',(0.866025403784439,-1.86676279567058E-16,0.5));
#250=DIRECTION('',(3.06151588455594E-17,-1.,-4.26379569736416E-16));
#251=DIRECTION('center_axis',(0.,-1.,-3.73352559134116E-16));
#252=DIRECTION('ref_axis',(-0.5,-3.23332800778076E-16,0.866025403784439));
#253=DIRECTION('center_axis',(6.12303176911189E-17,1.,3.73352559134116E-16));
#254=DIRECTION('ref_axis',(0.,-3.73352559134116E-16,1.));
#255=DIRECTION('center_axis',(6.12303176911189E-17,1.,3.73352559134116E-16));
#256=DIRECTION('ref_axis',(0.,-3.73352559134116E-16,1.));
#257=DIRECTION('center_axis',(-6.12303176911189E-17,-1.,-3.73352559134116E-16));
#258=DIRECTION('ref_axis',(0.,3.73352559134116E-16,-1.));
#259=DIRECTION('center_axis',(-6.12303176911189E-17,-1.,-3.73352559134116E-16));
#260=DIRECTION('ref_axis',(0.,3.73352559134116E-16,-1.));
#261=DIRECTION('center_axis',(-6.12303176911189E-17,-1.,-3.73352559134116E-16));
#262=DIRECTION('ref_axis',(0.,3.73352559134116E-16,-1.));
#263=DIRECTION('center_axis',(-6.12303176911189E-17,-1.,-3.73352559134116E-16));
#264=DIRECTION('ref_axis',(0.,3.73352559134116E-16,-1.));
#265=DIRECTION('center_axis',(6.12303176911192E-17,1.,3.73352559134117E-16));
#266=DIRECTION('ref_axis',(0.,-3.73352559134117E-16,1.));
#267=DIRECTION('center_axis',(6.12303176911192E-17,1.,3.73352559134117E-16));
#268=DIRECTION('ref_axis',(0.,-3.73352559134117E-16,1.));
#269=DIRECTION('',(6.12303176911189E-17,1.,3.73352559134116E-16));
#270=DIRECTION('center_axis',(-6.12303176911177E-17,-1.,-3.73352559134117E-16));
#271=DIRECTION('ref_axis',(0.,3.73352559134117E-16,-1.));
#272=DIRECTION('center_axis',(6.12303176911189E-17,1.,3.73352559134116E-16));
#273=DIRECTION('ref_axis',(0.,-3.73352559134116E-16,1.));
#274=DIRECTION('center_axis',(6.12303176911189E-17,1.,3.73352559134116E-16));
#275=DIRECTION('ref_axis',(0.,-3.73352559134116E-16,1.));
#276=DIRECTION('center_axis',(0.,-1.,-3.73352559134116E-16));
#277=DIRECTION('ref_axis',(1.,0.,0.));
#278=DIRECTION('center_axis',(-6.12303176911189E-17,-1.,-3.73352559134116E-16));
#279=DIRECTION('ref_axis',(0.,3.73352559134116E-16,-1.));
#280=DIRECTION('center_axis',(-6.12303176911189E-17,-1.,-3.73352559134116E-16));
#281=DIRECTION('ref_axis',(0.,3.73352559134116E-16,-1.));
#282=DIRECTION('center_axis',(6.12303176911188E-17,1.,3.73352559134117E-16));
#283=DIRECTION('ref_axis',(0.,-3.73352559134117E-16,1.));
#284=DIRECTION('center_axis',(6.12303176911188E-17,1.,3.73352559134117E-16));
#285=DIRECTION('ref_axis',(0.,-3.73352559134117E-16,1.));
#286=DIRECTION('',(6.12303176911189E-17,1.,3.73352559134116E-16));
#287=DIRECTION('center_axis',(-6.12303176911189E-17,-1.,-3.73352559134116E-16));
#288=DIRECTION('ref_axis',(0.,3.73352559134116E-16,-1.));
#289=DIRECTION('',(-6.12303176911189E-17,-1.,-3.73352559134116E-16));
#290=DIRECTION('center_axis',(6.12303176911188E-17,1.,3.73352559134117E-16));
#291=DIRECTION('ref_axis',(0.,-3.73352559134117E-16,1.));
#292=DIRECTION('',(4.32992327699526E-17,-0.707106781186548,0.707106781186547));
#293=DIRECTION('center_axis',(-6.12303176911177E-17,-1.,-3.73352559134117E-16));
#294=DIRECTION('ref_axis',(0.,3.73352559134117E-16,-1.));
#295=DIRECTION('',(1.29891978477145E-16,0.707106781186546,-0.707106781186549));
#296=DIRECTION('center_axis',(6.12303176911192E-17,1.,3.73352559134117E-16));
#297=DIRECTION('ref_axis',(0.,-3.73352559134117E-16,1.));
#298=DIRECTION('',(4.32992327699523E-17,-0.707106781186548,0.707106781186547));
#299=CARTESIAN_POINT('',(0.,0.,0.));
#300=CARTESIAN_POINT('Origin',(1.90819582357449E-14,605.578735090761,20.));
#301=CARTESIAN_POINT('',(3.89711431703001,200.,17.7499999999999));
#302=CARTESIAN_POINT('Origin',(3.29597460435593E-14,200.,20.));
#303=CARTESIAN_POINT('',(3.89711431703001,188.,17.7499999999999));
#304=CARTESIAN_POINT('',(3.89711431702999,605.578735090761,17.75));
#305=CARTESIAN_POINT('Origin',(3.12250225675825E-14,188.,20.));
#306=CARTESIAN_POINT('Origin',(17.3205080756887,605.578735090761,-9.99999999999975));
#307=CARTESIAN_POINT('',(13.4233937586587,200.,-12.2499999999999));
#308=CARTESIAN_POINT('Origin',(17.3205080756887,200.,-10.));
#309=CARTESIAN_POINT('',(13.4233937586587,188.,-12.2499999999999));
#310=CARTESIAN_POINT('',(13.4233937586587,605.578735090761,-12.2499999999997));
#311=CARTESIAN_POINT('Origin',(17.3205080756887,188.,-10.));
#312=CARTESIAN_POINT('Origin',(-1.2858366715135E-14,-50.,-3.18512292098561E-14));
#313=CARTESIAN_POINT('',(-4.28616268370329E-15,-50.,-10.));
#314=CARTESIAN_POINT('Origin',(-3.06151588455594E-15,-50.,-1.86676279567057E-14));
#315=CARTESIAN_POINT('Origin',(1.22460635382238E-14,200.,7.46705118268232E-14));
#316=CARTESIAN_POINT('',(8.93951718052592E-15,200.,27.0000000000001));
#317=CARTESIAN_POINT('Origin',(1.22460635382238E-14,200.,7.46705118268232E-14));
#318=CARTESIAN_POINT('',(-17.3205080756887,200.,-5.49999999999988));
#319=CARTESIAN_POINT('Origin',(-17.3205080756888,200.,-9.99999999999988));
#320=CARTESIAN_POINT('Origin',(0.,0.,0.));
#321=CARTESIAN_POINT('',(1.15725300436215E-14,189.,28.0000000000001));
#322=CARTESIAN_POINT('',(8.14351900600887E-15,189.,-27.9999999999999));
#323=CARTESIAN_POINT('Origin',(1.15725300436215E-14,189.,7.05636336763479E-14));
#324=CARTESIAN_POINT('Origin',(1.15725300436215E-14,189.,7.05636336763479E-14));
#325=CARTESIAN_POINT('',(8.75582218292007E-15,199.,28.0000000000001));
#326=CARTESIAN_POINT('',(-3.42901103761259E-15,-1.04538716557552E-14,28.));
#327=CARTESIAN_POINT('Origin',(1.21848332205327E-14,199.,7.42971592676891E-14));
#328=CARTESIAN_POINT('Origin',(1.15112997259303E-14,188.,11.));
#329=CARTESIAN_POINT('',(8.20475336823249E-15,188.,-26.9999999999999));
#330=CARTESIAN_POINT('Origin',(1.15112997259303E-14,188.,7.01902811172138E-14));
#331=CARTESIAN_POINT('',(-17.3205080756887,188.,-5.49999999999988));
#332=CARTESIAN_POINT('Origin',(-17.3205080756888,188.,-9.99999999999989));
#333=CARTESIAN_POINT('',(1.01641882468683E-14,188.,11.0000000000001));
#334=CARTESIAN_POINT('Origin',(1.15112997259303E-14,188.,7.01902811172138E-14));
#335=CARTESIAN_POINT('Origin',(0.,0.,0.));
#336=CARTESIAN_POINT('',(-3.00028556686482E-15,-49.,11.));
#337=CARTESIAN_POINT('',(-4.34739704592691E-15,-49.,-11.));
#338=CARTESIAN_POINT('Origin',(-3.00028556686482E-15,-49.,-1.82942753975716E-14));
#339=CARTESIAN_POINT('Origin',(-3.00028556686482E-15,-49.,-1.82942753975716E-14));
#340=CARTESIAN_POINT('',(-1.34711147906209E-15,-4.10687815047528E-15,11.));
#341=CARTESIAN_POINT('Origin',(-17.3205080756887,605.578735090761,-9.99999999999973));
#342=CARTESIAN_POINT('',(-17.3205080756887,605.578735090761,-5.49999999999973));
#343=CARTESIAN_POINT('Origin',(-3.06151588455594E-15,-50.,-1.86676279567058E-14));
#344=CARTESIAN_POINT('',(-4.28616268370329E-15,-50.,-10.));
#345=CARTESIAN_POINT('Origin',(1.21848332205327E-14,199.,7.42971592676891E-14));
#346=CARTESIAN_POINT('',(8.75582218292007E-15,199.,28.0000000000001));
#347=CARTESIAN_POINT('Origin',(1.15112997259303E-14,188.,7.01902811172138E-14));
#348=CARTESIAN_POINT('',(8.20475336823249E-15,188.,-26.9999999999999));
#349=UNCERTAINTY_MEASURE_WITH_UNIT(LENGTH_MEASURE(0.01),#353,
'DISTANCE_ACCURACY_VALUE',
'Maximum model space distance between geometric entities at asserted c
onnectivities');
#350=UNCERTAINTY_MEASURE_WITH_UNIT(LENGTH_MEASURE(0.01),#353,
'DISTANCE_ACCURACY_VALUE',
'Maximum model space distance between geometric entities at asserted c
onnectivities');
#351=(
GEOMETRIC_REPRESENTATION_CONTEXT(3)
GLOBAL_UNCERTAINTY_ASSIGNED_CONTEXT((#349))
GLOBAL_UNIT_ASSIGNED_CONTEXT((#353,#355,#356))
REPRESENTATION_CONTEXT('','3D')
);
#352=(
GEOMETRIC_REPRESENTATION_CONTEXT(3)
GLOBAL_UNCERTAINTY_ASSIGNED_CONTEXT((#350))
GLOBAL_UNIT_ASSIGNED_CONTEXT((#353,#355,#356))
REPRESENTATION_CONTEXT('','3D')
);
#353=(
LENGTH_UNIT()
NAMED_UNIT(*)
SI_UNIT(.MILLI.,.METRE.)
);
#354=(
LENGTH_UNIT()
NAMED_UNIT(*)
SI_UNIT(.CENTI.,.METRE.)
);
#355=(
NAMED_UNIT(*)
PLANE_ANGLE_UNIT()
SI_UNIT($,.RADIAN.)
);
#356=(
NAMED_UNIT(*)
SI_UNIT($,.STERADIAN.)
SOLID_ANGLE_UNIT()
);
#357=SHAPE_DEFINITION_REPRESENTATION(#358,#359);
#358=PRODUCT_DEFINITION_SHAPE('',$,#361);
#359=SHAPE_REPRESENTATION('',(#210),#351);
#360=PRODUCT_DEFINITION_CONTEXT('part definition',#365,'design');
#361=PRODUCT_DEFINITION('306SM0141-A','306SM0141-A',#362,#360);
#362=PRODUCT_DEFINITION_FORMATION('',$,#367);
#363=PRODUCT_RELATED_PRODUCT_CATEGORY('306SM0141-A','306SM0141-A',(#367));
#364=APPLICATION_PROTOCOL_DEFINITION('international standard',
'automotive_design',2009,#365);
#365=APPLICATION_CONTEXT(
'Core Data for Automotive Mechanical Design Process');
#366=PRODUCT_CONTEXT('part definition',#365,'mechanical');
#367=PRODUCT('306SM0141-A','306SM0141-A',$,(#366));
#368=PRESENTATION_STYLE_ASSIGNMENT((#370));
#369=PRESENTATION_STYLE_ASSIGNMENT((#371));
#370=SURFACE_STYLE_USAGE(.BOTH.,#376);
#371=SURFACE_STYLE_USAGE(.BOTH.,#377);
#372=SURFACE_STYLE_RENDERING_WITH_PROPERTIES($,#384,(#374));
#373=SURFACE_STYLE_RENDERING_WITH_PROPERTIES($,#385,(#375));
#374=SURFACE_STYLE_TRANSPARENT(0.);
#375=SURFACE_STYLE_TRANSPARENT(0.);
#376=SURFACE_SIDE_STYLE('',(#378,#372));
#377=SURFACE_SIDE_STYLE('',(#379,#373));
#378=SURFACE_STYLE_FILL_AREA(#380);
#379=SURFACE_STYLE_FILL_AREA(#381);
#380=FILL_AREA_STYLE('',(#382));
#381=FILL_AREA_STYLE('',(#383));
#382=FILL_AREA_STYLE_COLOUR('',#384);
#383=FILL_AREA_STYLE_COLOUR('',#385);
#384=COLOUR_RGB('',0.749019607843137,0.749019607843137,0.749019607843137);
#385=COLOUR_RGB('',0.662745098039216,0.686274509803922,0.698039215686274);
ENDSEC;
END-ISO-10303-21;
