ISO-10303-21;
HEADER;
FILE_DESCRIPTION (( 'STEP AP203' ),
    '1' );
FILE_NAME ('0 - FTCM1130-011.step',
    '2025-11-05T14:58:56',
    ( '' ),
    ( '' ),
    'SwSTEP 2.0',
    'SolidWorks 2024',
    '' );
FILE_SCHEMA (( 'CONFIG_CONTROL_DESIGN' ));
ENDSEC;

DATA;
#1 = PERSON_AND_ORGANIZATION ( #735, #588 ) ;
#2 = ORIENTED_EDGE ( 'NONE', *, *, #142, .F. ) ;
#3 = CARTESIAN_POINT ( 'NONE',  ( -72.30467813820297351, -74.51150572225307656, 3.000000000000000000 ) ) ;
#4 = EDGE_CURVE ( 'NONE', #169, #948, #451, .T. ) ;
#5 = FACE_OUTER_BOUND ( 'NONE', #831, .T. ) ;
#6 = CIRCLE ( 'NONE', #139, 6.500000000000005329 ) ;
#7 = PERSON_AND_ORGANIZATION ( #735, #588 ) ;
#8 = ORIENTED_EDGE ( 'NONE', *, *, #724, .F. ) ;
#9 = CONICAL_SURFACE ( 'NONE', #531, 6.500000000000005329, 0.7853981633974543852 ) ;
#10 = AXIS2_PLACEMENT_3D ( 'NONE', #833, #538, #178 ) ;
#11 = DIRECTION ( 'NONE',  ( 1.000000000000000000, 0.000000000000000000, 0.000000000000000000 ) ) ;
#12 = CARTESIAN_POINT ( 'NONE',  ( 0.000000000000000000, 0.000000000000000000, 3.000000000000000000 ) ) ;
#13 = PERSON_AND_ORGANIZATION ( #735, #588 ) ;
#14 = VERTEX_POINT ( 'NONE', #393 ) ;
#15 = CARTESIAN_POINT ( 'NONE',  ( 0.000000000000000000, 0.000000000000000000, -3.000000000000000000 ) ) ;
#16 = CARTESIAN_POINT ( 'NONE',  ( -68.99999999999911893, -119.5115057222530908, 2.000000000000000000 ) ) ;
#17 = PERSON_AND_ORGANIZATION ( #735, #588 ) ;
#18 = ORIENTED_EDGE ( 'NONE', *, *, #324, .F. ) ;
#19 = ADVANCED_FACE ( 'NONE', ( #537, #826, #166 ), #682, .F. ) ;
#20 = ORIENTED_EDGE ( 'NONE', *, *, #572, .T. ) ;
#21 = PLANE ( 'NONE',  #944 ) ;
#22 = CYLINDRICAL_SURFACE ( 'NONE', #97, 13.99999999999999822 ) ;
#23 = PERSON_AND_ORGANIZATION ( #735, #588 ) ;
#24 = ORIENTED_EDGE ( 'NONE', *, *, #761, .F. ) ;
#25 = AXIS2_PLACEMENT_3D ( 'NONE', #729, #594, #89 ) ;
#26 = EDGE_CURVE ( 'NONE', #160, #871, #723, .T. ) ;
#27 = VECTOR ( 'NONE', #763, 1000.000000000000000 ) ;
#28 = CARTESIAN_POINT ( 'NONE',  ( -55.40359269950465659, -86.82995978340308341, 3.000000000000000000 ) ) ;
#29 = FACE_OUTER_BOUND ( 'NONE', #563, .T. ) ;
#30 = CC_DESIGN_DATE_AND_TIME_ASSIGNMENT ( #379, #363, ( #180 ) ) ;
#31 = EDGE_LOOP ( 'NONE', ( #757, #832, #352, #438 ) ) ;
#32 = DIRECTION ( 'NONE',  ( -0.000000000000000000, -0.000000000000000000, -1.000000000000000000 ) ) ;
#33 = DIRECTION ( 'NONE',  ( -0.000000000000000000, -0.000000000000000000, -1.000000000000000000 ) ) ;
#34 = ORIENTED_EDGE ( 'NONE', *, *, #184, .F. ) ;
#35 = DIRECTION ( 'NONE',  ( 1.000000000000000000, 0.000000000000000000, 0.000000000000000000 ) ) ;
#36 = DIRECTION ( 'NONE',  ( -0.000000000000000000, -0.000000000000000000, 1.000000000000000000 ) ) ;
#37 = ADVANCED_FACE ( 'NONE', ( #540 ), #403, .F. ) ;
#38 = DIRECTION ( 'NONE',  ( 0.000000000000000000, -0.000000000000000000, -1.000000000000000000 ) ) ;
#39 = DIRECTION ( 'NONE',  ( -0.000000000000000000, -0.000000000000000000, -1.000000000000000000 ) ) ;
#40 = CIRCLE ( 'NONE', #792, 2.249999999999849454 ) ;
#41 = CARTESIAN_POINT ( 'NONE',  ( -68.99999999999911893, -119.5115057222530908, 3.000000000000000000 ) ) ;
#42 = PLANE ( 'NONE',  #619 ) ;
#43 = ORIENTED_EDGE ( 'NONE', *, *, #857, .T. ) ;
#44 = CC_DESIGN_PERSON_AND_ORGANIZATION_ASSIGNMENT ( #17, #143, ( #180 ) ) ;
#45 = CARTESIAN_POINT ( 'NONE',  ( -106.9473319220196572, -88.51150572225307656, 3.000000000000000000 ) ) ;
#46 = CARTESIAN_POINT ( 'NONE',  ( -113.4473319220196998, -88.51150572225307656, 3.000000000000000000 ) ) ;
#47 = ADVANCED_FACE ( 'NONE', ( #487 ), #785, .F. ) ;
#48 = ORIENTED_EDGE ( 'NONE', *, *, #830, .F. ) ;
#49 = FACE_OUTER_BOUND ( 'NONE', #688, .T. ) ;
#50 = DIRECTION ( 'NONE',  ( -0.000000000000000000, -0.000000000000000000, -1.000000000000000000 ) ) ;
#51 = ORIENTED_EDGE ( 'NONE', *, *, #385, .F. ) ;
#52 = EDGE_CURVE ( 'NONE', #182, #279, #121, .T. ) ;
#53 = CARTESIAN_POINT ( 'NONE',  ( 0.000000000000000000, 0.000000000000000000, 3.000000000000000000 ) ) ;
#54 = AXIS2_PLACEMENT_3D ( 'NONE', #436, #446, #150 ) ;
#55 = AXIS2_PLACEMENT_3D ( 'NONE', #353, #413, #632 ) ;
#56 = AXIS2_PLACEMENT_3D ( 'NONE', #689, #32, #322 ) ;
#57 = CARTESIAN_POINT ( 'NONE',  ( -70.25831932297080584, -75.31778386218930166, 3.000000000000000000 ) ) ;
#58 = ORIENTED_EDGE ( 'NONE', *, *, #718, .F. ) ;
#59 = CARTESIAN_POINT ( 'NONE',  ( -2.724973834205527653E-14, -74.51150572225310498, 2.000000000000000000 ) ) ;
#60 = VERTEX_POINT ( 'NONE', #196 ) ;
#61 = CARTESIAN_POINT ( 'NONE',  ( -113.4473319220196714, -88.51150572225307656, -3.000000000000000000 ) ) ;
#62 = ORIENTED_EDGE ( 'NONE', *, *, #653, .F. ) ;
#63 = CARTESIAN_POINT ( 'NONE',  ( -106.9473319220196572, -88.51150572225307656, 0.000000000000000000 ) ) ;
#64 = AXIS2_PLACEMENT_3D ( 'NONE', #947, #356, #339 ) ;
#65 = AXIS2_PLACEMENT_3D ( 'NONE', #902, #731, #223 ) ;
#66 = ORIENTED_EDGE ( 'NONE', *, *, #590, .T. ) ;
#67 = CARTESIAN_POINT ( 'NONE',  ( -100.9473319220196572, -88.51150572225307656, 3.000000000000000000 ) ) ;
#68 = APPROVAL ( #741, 'UNSPECIFIED' ) ;
#69 = FACE_OUTER_BOUND ( 'NONE', #771, .T. ) ;
#70 = PERSON_AND_ORGANIZATION_ROLE ( 'design_owner' ) ;
#71 = ORIENTED_EDGE ( 'NONE', *, *, #268, .T. ) ;
#72 = EDGE_CURVE ( 'NONE', #615, #948, #743, .T. ) ;
#73 = CARTESIAN_POINT ( 'NONE',  ( -106.9473319220196572, -88.51150572225307656, 3.000000000000000000 ) ) ;
#74 = CYLINDRICAL_SURFACE ( 'NONE', #202, 3.000000000000002665 ) ;
#75 = PERSON_AND_ORGANIZATION ( #735, #588 ) ;
#76 = ORIENTED_EDGE ( 'NONE', *, *, #406, .T. ) ;
#77 = DIRECTION ( 'NONE',  ( 1.000000000000000000, 0.000000000000000000, 0.000000000000000000 ) ) ;
#78 = DIRECTION ( 'NONE',  ( -0.000000000000000000, 0.000000000000000000, 1.000000000000000000 ) ) ;
#79 = AXIS2_PLACEMENT_3D ( 'NONE', #610, #777, #476 ) ;
#80 = COORDINATED_UNIVERSAL_TIME_OFFSET ( 0, 0, .AHEAD. ) ;
#81 = EDGE_LOOP ( 'NONE', ( #48, #416, #245, #644 ) ) ;
#82 = LOCAL_TIME ( 14, 58, 56.00000000000000000, #691 ) ;
#83 = DIRECTION ( 'NONE',  ( -0.000000000000000000, -0.000000000000000000, -1.000000000000000000 ) ) ;
#84 = FACE_OUTER_BOUND ( 'NONE', #320, .T. ) ;
#85 = DATE_AND_TIME ( #521, #852 ) ;
#86 = VERTEX_POINT ( 'NONE', #858 ) ;
#87 = EDGE_LOOP ( 'NONE', ( #263, #459, #716, #719 ) ) ;
#88 = DIRECTION ( 'NONE',  ( -0.000000000000000000, -0.000000000000000000, -1.000000000000000000 ) ) ;
#89 = DIRECTION ( 'NONE',  ( 1.000000000000000000, 0.000000000000000000, 0.000000000000000000 ) ) ;
#90 = EDGE_CURVE ( 'NONE', #862, #197, #584, .T. ) ;
#91 = MECHANICAL_CONTEXT ( 'NONE', #454, 'mechanical' ) ;
#92 = ORIENTED_EDGE ( 'NONE', *, *, #825, .F. ) ;
#93 = VERTEX_POINT ( 'NONE', #414 ) ;
#94 = CARTESIAN_POINT ( 'NONE',  ( -101.4814087114246206, -77.54855979262835319, 0.000000000000000000 ) ) ;
#95 = CARTESIAN_POINT ( 'NONE',  ( -106.9473319220196572, -88.51150572225307656, -3.000000000000000000 ) ) ;
#96 = VERTEX_POINT ( 'NONE', #556 ) ;
#97 = AXIS2_PLACEMENT_3D ( 'NONE', #604, #901, #651 ) ;
#98 = AXIS2_PLACEMENT_3D ( 'NONE', #461, #257, #759 ) ;
#99 = EDGE_LOOP ( 'NONE', ( #92, #721, #458, #541 ) ) ;
#100 = DIRECTION ( 'NONE',  ( -0.000000000000000000, -0.000000000000000000, -1.000000000000000000 ) ) ;
#101 = AXIS2_PLACEMENT_3D ( 'NONE', #329, #465, #602 ) ;
#102 = DIRECTION ( 'NONE',  ( 1.000000000000000000, 0.000000000000000000, 0.000000000000000000 ) ) ;
#103 = ORIENTED_EDGE ( 'NONE', *, *, #873, .T. ) ;
#104 = VERTEX_POINT ( 'NONE', #433 ) ;
#105 = LINE ( 'NONE', #758, #432 ) ;
#106 = ADVANCED_FACE ( 'NONE', ( #775 ), #697, .F. ) ;
#107 = DIRECTION ( 'NONE',  ( 0.000000000000000000, 0.000000000000000000, 1.000000000000000000 ) ) ;
#108 = DIRECTION ( 'NONE',  ( 0.7071067811865517916, 8.659560562354985860E-17, -0.7071067811865432429 ) ) ;
#109 = VERTEX_POINT ( 'NONE', #490 ) ;
#110 = DIRECTION ( 'NONE',  ( -0.000000000000000000, -0.000000000000000000, -1.000000000000000000 ) ) ;
#111 = LINE ( 'NONE', #247, #278 ) ;
#112 = APPROVAL_DATE_TIME ( #239, #340 ) ;
#113 = CARTESIAN_POINT ( 'NONE',  ( 0.000000000000000000, 0.000000000000000000, 2.000000000000000000 ) ) ;
#114 = VERTEX_POINT ( 'NONE', #481 ) ;
#115 = FACE_OUTER_BOUND ( 'NONE', #220, .T. ) ;
#116 = CIRCLE ( 'NONE', #174, 103.0000000000000000 ) ;
#117 = EDGE_CURVE ( 'NONE', #452, #123, #494, .T. ) ;
#118 = DIRECTION ( 'NONE',  ( 1.000000000000000000, 0.000000000000000000, 0.000000000000000000 ) ) ;
#119 = ORIENTED_EDGE ( 'NONE', *, *, #370, .T. ) ;
#120 = DIRECTION ( 'NONE',  ( 0.000000000000000000, 0.000000000000000000, -1.000000000000000000 ) ) ;
#121 = LINE ( 'NONE', #258, #215 ) ;
#122 = ADVANCED_FACE ( 'NONE', ( #701 ), #42, .F. ) ;
#123 = VERTEX_POINT ( 'NONE', #46 ) ;
#124 = CARTESIAN_POINT ( 'NONE',  ( -70.25831932297080584, -75.31778386218930166, -2.000000000000000000 ) ) ;
#125 = DIRECTION ( 'NONE',  ( 0.000000000000000000, 0.000000000000000000, 1.000000000000000000 ) ) ;
#126 = EDGE_LOOP ( 'NONE', ( #567, #321, #194, #642, #755, #532, #765 ) ) ;
#127 = AXIS2_PLACEMENT_3D ( 'NONE', #629, #802, #118 ) ;
#128 = DIRECTION ( 'NONE',  ( 0.000000000000000000, 0.000000000000000000, 1.000000000000000000 ) ) ;
#129 = AXIS2_PLACEMENT_3D ( 'NONE', #539, #829, #717 ) ;
#130 = VECTOR ( 'NONE', #100, 1000.000000000000000 ) ;
#131 = EDGE_LOOP ( 'NONE', ( #848, #350, #176, #670 ) ) ;
#132 = CARTESIAN_POINT ( 'NONE',  ( -69.26911083747829423, -84.15931489612512451, 2.000000000000000000 ) ) ;
#133 = EDGE_CURVE ( 'NONE', #409, #612, #864, .T. ) ;
#134 = ORIENTED_EDGE ( 'NONE', *, *, #718, .T. ) ;
#135 = DIRECTION ( 'NONE',  ( -1.000000000000000000, 0.000000000000000000, 0.000000000000000000 ) ) ;
#136 = EDGE_LOOP ( 'NONE', ( #693, #869, #235, #488 ) ) ;
#137 = DIRECTION ( 'NONE',  ( -0.000000000000000000, -0.000000000000000000, -1.000000000000000000 ) ) ;
#138 = DIRECTION ( 'NONE',  ( -0.000000000000000000, -0.000000000000000000, -1.000000000000000000 ) ) ;
#139 = AXIS2_PLACEMENT_3D ( 'NONE', #165, #146, #216 ) ;
#140 = VECTOR ( 'NONE', #307, 1000.000000000000000 ) ;
#141 = CIRCLE ( 'NONE', #253, 0.1999999999999987899 ) ;
#142 = EDGE_CURVE ( 'NONE', #386, #400, #276, .T. ) ;
#143 = PERSON_AND_ORGANIZATION_ROLE ( 'creator' ) ;
#144 = ORIENTED_EDGE ( 'NONE', *, *, #486, .T. ) ;
#145 = DIRECTION ( 'NONE',  ( -1.000000000000000000, 0.000000000000000000, 0.000000000000000000 ) ) ;
#146 = DIRECTION ( 'NONE',  ( -0.000000000000000000, 0.000000000000000000, 1.000000000000000000 ) ) ;
#147 = EDGE_CURVE ( 'NONE', #511, #93, #527, .T. ) ;
#148 = VERTEX_POINT ( 'NONE', #57 ) ;
#149 = DIRECTION ( 'NONE',  ( -1.000000000000000000, 0.000000000000000000, 0.000000000000000000 ) ) ;
#150 = DIRECTION ( 'NONE',  ( 1.000000000000000000, 0.000000000000000000, 0.000000000000000000 ) ) ;
#151 = ORIENTED_EDGE ( 'NONE', *, *, #26, .F. ) ;
#152 = CARTESIAN_POINT ( 'NONE',  ( -106.9473319220196572, -74.51150572225306234, 3.000000000000000000 ) ) ;
#153 = EDGE_CURVE ( 'NONE', #511, #660, #232, .T. ) ;
#154 = CARTESIAN_POINT ( 'NONE',  ( -106.9473319220196572, -88.51150572225307656, 2.499999999999976019 ) ) ;
#155 = AXIS2_PLACEMENT_3D ( 'NONE', #341, #788, #621 ) ;
#156 = AXIS2_PLACEMENT_3D ( 'NONE', #466, #36, #102 ) ;
#157 = DATE_TIME_ROLE ( 'classification_date' ) ;
#158 = ORIENTED_EDGE ( 'NONE', *, *, #559, .F. ) ;
#159 = AXIS2_PLACEMENT_3D ( 'NONE', #609, #823, #35 ) ;
#160 = VERTEX_POINT ( 'NONE', #936 ) ;
#161 = DIRECTION ( 'NONE',  ( 1.000000000000000000, 0.000000000000000000, 0.000000000000000000 ) ) ;
#162 = LINE ( 'NONE', #442, #480 ) ;
#163 = ORIENTED_EDGE ( 'NONE', *, *, #425, .T. ) ;
#164 = CARTESIAN_POINT ( 'NONE',  ( -55.58781355654533485, -87.18329428385102631, 3.000000000000000000 ) ) ;
#165 = CARTESIAN_POINT ( 'NONE',  ( -106.9473319220196572, -88.51150572225307656, -3.000000000000000000 ) ) ;
#166 = FACE_OUTER_BOUND ( 'NONE', #249, .T. ) ;
#167 = DIRECTION ( 'NONE',  ( 1.000000000000000000, -3.657118196434064207E-16, 0.000000000000000000 ) ) ;
#168 = LINE ( 'NONE', #696, #634 ) ;
#169 = VERTEX_POINT ( 'NONE', #418 ) ;
#170 = ADVANCED_FACE ( 'NONE', ( #625 ), #560, .T. ) ;
#171 = AXIS2_PLACEMENT_3D ( 'NONE', #63, #265, #934 ) ;
#172 = ORIENTED_EDGE ( 'NONE', *, *, #535, .F. ) ;
#173 = CARTESIAN_POINT ( 'NONE',  ( -112.9473319220196714, -88.51150572225307656, -2.500000000000003997 ) ) ;
#174 = AXIS2_PLACEMENT_3D ( 'NONE', #15, #365, #11 ) ;
#175 = CARTESIAN_POINT ( 'NONE',  ( -102.4853537909215504, -79.56216210623264828, -3.000000000000000000 ) ) ;
#176 = ORIENTED_EDGE ( 'NONE', *, *, #153, .T. ) ;
#177 = ORIENTED_EDGE ( 'NONE', *, *, #549, .T. ) ;
#178 = DIRECTION ( 'NONE',  ( -1.000000000000000000, 0.000000000000000000, 0.000000000000000000 ) ) ;
#179 = DIRECTION ( 'NONE',  ( 1.000000000000000000, -3.657118196434064207E-16, 0.000000000000000000 ) ) ;
#180 = PRODUCT_DEFINITION ( 'UNKNOWN', '', #606, #288 ) ;
#181 = DIRECTION ( 'NONE',  ( -1.000000000000000000, 0.000000000000000000, 0.000000000000000000 ) ) ;
#182 = VERTEX_POINT ( 'NONE', #569 ) ;
#183 = LINE ( 'NONE', #544, #27 ) ;
#184 = EDGE_CURVE ( 'NONE', #310, #123, #861, .T. ) ;
#185 = CLOSED_SHELL ( 'NONE', ( #935, #462, #707, #313, #456, #217, #37, #928, #516, #347, #299, #270, #19, #359, #899, #122, #170, #649, #529, #228, #918, #491, #106, #803, #641, #47, #565, #695 ) ) ;
#186 = CARTESIAN_POINT ( 'NONE',  ( -112.9473319220196714, -88.51150572225307656, 2.499999999999976019 ) ) ;
#187 = ORIENTED_EDGE ( 'NONE', *, *, #789, .F. ) ;
#188 = CIRCLE ( 'NONE', #603, 0.1999999999999987899 ) ;
#189 = VECTOR ( 'NONE', #784, 1000.000000000000000 ) ;
#190 = DIRECTION ( 'NONE',  ( -0.000000000000000000, 0.000000000000000000, 1.000000000000000000 ) ) ;
#191 = APPROVAL_PERSON_ORGANIZATION ( #1, #68, #304 ) ;
#192 = EDGE_CURVE ( 'NONE', #654, #386, #212, .T. ) ;
#193 = CARTESIAN_POINT ( 'NONE',  ( -70.25831932297080584, -75.31778386218930166, 2.000000000000000000 ) ) ;
#194 = ORIENTED_EDGE ( 'NONE', *, *, #856, .F. ) ;
#195 = DIRECTION ( 'NONE',  ( -0.000000000000000000, -0.000000000000000000, -1.000000000000000000 ) ) ;
#196 = CARTESIAN_POINT ( 'NONE',  ( -109.0184293366261983, -81.04336970988610744, -3.000000000000000000 ) ) ;
#197 = VERTEX_POINT ( 'NONE', #193 ) ;
#198 = LINE ( 'NONE', #712, #779 ) ;
#199 = EDGE_CURVE ( 'NONE', #182, #386, #391, .T. ) ;
#200 = ORIENTED_EDGE ( 'NONE', *, *, #580, .T. ) ;
#201 = CARTESIAN_POINT ( 'NONE',  ( -69.39395892953557166, -84.51372298731638466, -2.000000000000000000 ) ) ;
#202 = AXIS2_PLACEMENT_3D ( 'NONE', #824, #891, #303 ) ;
#203 = VECTOR ( 'NONE', #519, 1000.000000000000000 ) ;
#204 = SECURITY_CLASSIFICATION ( '', '', #892 ) ;
#205 = ORIENTED_EDGE ( 'NONE', *, *, #90, .T. ) ;
#206 = CYLINDRICAL_SURFACE ( 'NONE', #431, 7.750000000000145661 ) ;
#207 = APPROVAL ( #367, 'UNSPECIFIED' ) ;
#208 = EDGE_LOOP ( 'NONE', ( #20, #205, #810, #71, #576, #573, #492 ) ) ;
#209 = CC_DESIGN_PERSON_AND_ORGANIZATION_ASSIGNMENT ( #23, #70, ( #839 ) ) ;
#210 = CARTESIAN_POINT ( 'NONE',  ( -96.10523708715662394, -97.36864857939595197, 3.000000000000000000 ) ) ;
#211 = EDGE_CURVE ( 'NONE', #790, #660, #188, .T. ) ;
#212 = LINE ( 'NONE', #843, #677 ) ;
#213 = VERTEX_POINT ( 'NONE', #664 ) ;
#214 = CARTESIAN_POINT ( 'NONE',  ( -113.4473319220196714, -88.51150572225307656, -3.000000000000000000 ) ) ;
#215 = VECTOR ( 'NONE', #325, 1000.000000000000000 ) ;
#216 = DIRECTION ( 'NONE',  ( 1.000000000000000000, 0.000000000000000000, 0.000000000000000000 ) ) ;
#217 = ADVANCED_FACE ( 'NONE', ( #5 ), #736, .F. ) ;
#218 = AXIS2_PLACEMENT_3D ( 'NONE', #647, #489, #938 ) ;
#219 = PERSON_AND_ORGANIZATION_ROLE ( 'creator' ) ;
#220 = EDGE_LOOP ( 'NONE', ( #423, #946, #805, #158 ) ) ;
#221 = FACE_OUTER_BOUND ( 'NONE', #478, .T. ) ;
#222 = DIRECTION ( 'NONE',  ( -0.000000000000000000, -0.000000000000000000, -1.000000000000000000 ) ) ;
#223 = DIRECTION ( 'NONE',  ( 1.000000000000000000, 0.000000000000000000, 0.000000000000000000 ) ) ;
#224 = ORIENTED_EDGE ( 'NONE', *, *, #280, .T. ) ;
#225 = CYLINDRICAL_SURFACE ( 'NONE', #470, 2.249999999999876987 ) ;
#226 = DIRECTION ( 'NONE',  ( 0.000000000000000000, 0.000000000000000000, -1.000000000000000000 ) ) ;
#227 = CARTESIAN_POINT ( 'NONE',  ( -100.4473319220196572, -88.51150572225307656, -3.000000000000000000 ) ) ;
#228 = ADVANCED_FACE ( 'NONE', ( #69 ), #74, .T. ) ;
#229 = EDGE_CURVE ( 'NONE', #213, #862, #753, .T. ) ;
#230 = DIRECTION ( 'NONE',  ( -1.000000000000000000, 0.000000000000000000, -0.000000000000000000 ) ) ;
#231 = CARTESIAN_POINT ( 'NONE',  ( -72.30467813820297351, -74.51150572225307656, 3.000000000000000000 ) ) ;
#232 = CIRCLE ( 'NONE', #429, 103.0000000000000000 ) ;
#233 = VECTOR ( 'NONE', #107, 1000.000000000000000 ) ;
#234 = CARTESIAN_POINT ( 'NONE',  ( -100.9473319220196572, -88.51150572225307656, 2.499999999999976019 ) ) ;
#235 = ORIENTED_EDGE ( 'NONE', *, *, #656, .T. ) ;
#236 = AXIS2_PLACEMENT_3D ( 'NONE', #390, #319, #679 ) ;
#237 = DIRECTION ( 'NONE',  ( 3.657118196434064207E-16, 1.000000000000000000, -0.000000000000000000 ) ) ;
#238 = CARTESIAN_POINT ( 'NONE',  ( -109.6197156828022514, -78.87520119016677711, -3.000000000000000000 ) ) ;
#239 = DATE_AND_TIME ( #705, #82 ) ;
#240 = ORIENTED_EDGE ( 'NONE', *, *, #486, .F. ) ;
#241 = ORIENTED_EDGE ( 'NONE', *, *, #498, .T. ) ;
#242 = DIRECTION ( 'NONE',  ( 1.000000000000000000, 0.000000000000000000, 0.000000000000000000 ) ) ;
#243 = DIRECTION ( 'NONE',  ( 0.000000000000000000, -0.000000000000000000, -1.000000000000000000 ) ) ;
#244 = CARTESIAN_POINT ( 'NONE',  ( -106.9473319220196572, -88.51150572225307656, 0.000000000000000000 ) ) ;
#245 = ORIENTED_EDGE ( 'NONE', *, *, #90, .F. ) ;
#246 = DIRECTION ( 'NONE',  ( -1.000000000000000000, 0.000000000000000000, 0.000000000000000000 ) ) ;
#247 = CARTESIAN_POINT ( 'NONE',  ( -79.55523562282148475, -74.51150572225307656, -2.000000000000000000 ) ) ;
#248 = AXIS2_PLACEMENT_3D ( 'NONE', #710, #38, #407 ) ;
#249 = EDGE_LOOP ( 'NONE', ( #838, #163, #419, #144, #783, #2, #859 ) ) ;
#250 = CIRCLE ( 'NONE', #54, 34.99999999999994316 ) ;
#251 = CIRCLE ( 'NONE', #98, 109.0000000000000000 ) ;
#252 = DIRECTION ( 'NONE',  ( 0.000000000000000000, 0.000000000000000000, 1.000000000000000000 ) ) ;
#253 = AXIS2_PLACEMENT_3D ( 'NONE', #762, #913, #397 ) ;
#254 = FACE_OUTER_BOUND ( 'NONE', #87, .T. ) ;
#255 = DIRECTION ( 'NONE',  ( 0.000000000000000000, 0.000000000000000000, 1.000000000000000000 ) ) ;
#256 = EDGE_CURVE ( 'NONE', #948, #615, #6, .T. ) ;
#257 = DIRECTION ( 'NONE',  ( 0.000000000000000000, 0.000000000000000000, 1.000000000000000000 ) ) ;
#258 = CARTESIAN_POINT ( 'NONE',  ( -2.724973834205527653E-14, -74.51150572225310498, -3.000000000000000000 ) ) ;
#259 = ORIENTED_EDGE ( 'NONE', *, *, #789, .T. ) ;
#260 = EDGE_CURVE ( 'NONE', #287, #310, #467, .T. ) ;
#261 = DIRECTION ( 'NONE',  ( -0.000000000000000000, -0.000000000000000000, 1.000000000000000000 ) ) ;
#262 = DIRECTION ( 'NONE',  ( -0.000000000000000000, 0.000000000000000000, 1.000000000000000000 ) ) ;
#263 = ORIENTED_EDGE ( 'NONE', *, *, #631, .T. ) ;
#264 = VECTOR ( 'NONE', #83, 1000.000000000000000 ) ;
#265 = DIRECTION ( 'NONE',  ( -0.000000000000000000, -0.000000000000000000, -1.000000000000000000 ) ) ;
#266 = CARTESIAN_POINT ( 'NONE',  ( -102.4853537909215504, -79.56216210623264828, 0.000000000000000000 ) ) ;
#267 = ORIENTED_EDGE ( 'NONE', *, *, #285, .F. ) ;
#268 = EDGE_CURVE ( 'NONE', #388, #639, #355, .T. ) ;
#269 = LINE ( 'NONE', #59, #189 ) ;
#270 = ADVANCED_FACE ( 'NONE', ( #515, #809 ), #298, .T. ) ;
#271 = EDGE_CURVE ( 'NONE', #310, #287, #326, .T. ) ;
#272 = DIRECTION ( 'NONE',  ( -0.000000000000000000, -0.000000000000000000, -1.000000000000000000 ) ) ;
#273 = EDGE_LOOP ( 'NONE', ( #767, #557, #172, #241 ) ) ;
#274 = CARTESIAN_POINT ( 'NONE',  ( -112.9473319220196714, -88.51150572225307656, 3.000000000000000000 ) ) ;
#275 = ORIENTED_EDGE ( 'NONE', *, *, #898, .F. ) ;
#276 = CIRCLE ( 'NONE', #942, 13.99999999999999822 ) ;
#277 = DIRECTION ( 'NONE',  ( -0.000000000000000000, -0.000000000000000000, -1.000000000000000000 ) ) ;
#278 = VECTOR ( 'NONE', #915, 1000.000000000000000 ) ;
#279 = VERTEX_POINT ( 'NONE', #812 ) ;
#280 = EDGE_CURVE ( 'NONE', #790, #570, #250, .T. ) ;
#281 = EDGE_CURVE ( 'NONE', #612, #338, #162, .T. ) ;
#282 = DIRECTION ( 'NONE',  ( -0.000000000000000000, 0.000000000000000000, 1.000000000000000000 ) ) ;
#283 = ORIENTED_EDGE ( 'NONE', *, *, #656, .F. ) ;
#284 = LINE ( 'NONE', #430, #866 ) ;
#285 = EDGE_CURVE ( 'NONE', #123, #452, #496, .T. ) ;
#286 = DIRECTION ( 'NONE',  ( -0.000000000000000000, -0.000000000000000000, -1.000000000000000000 ) ) ;
#287 = VERTEX_POINT ( 'NONE', #371 ) ;
#288 = DESIGN_CONTEXT ( 'detailed design', #867, 'design' ) ;
#289 = LINE ( 'NONE', #528, #806 ) ;
#290 = AXIS2_PLACEMENT_3D ( 'NONE', #932, #638, #566 ) ;
#291 = CARTESIAN_POINT ( 'NONE',  ( -55.51117249115417707, -86.99856164706017125, -2.000000000000000000 ) ) ;
#292 = VECTOR ( 'NONE', #781, 1000.000000000000000 ) ;
#293 = VECTOR ( 'NONE', #818, 1000.000000000000000 ) ;
#294 = AXIS2_PLACEMENT_3D ( 'NONE', #752, #650, #949 ) ;
#295 =( NAMED_UNIT ( * ) SI_UNIT ( $, .STERADIAN. ) SOLID_ANGLE_UNIT ( ) );
#296 = ORIENTED_EDGE ( 'NONE', *, *, #504, .T. ) ;
#297 = CARTESIAN_POINT ( 'NONE',  ( -55.40359269950464949, -86.82995978340308341, 3.000000000000000000 ) ) ;
#298 = PLANE ( 'NONE',  #620 ) ;
#299 = ADVANCED_FACE ( 'NONE', ( #384 ), #22, .T. ) ;
#300 = PERSON_AND_ORGANIZATION_ROLE ( 'classification_officer' ) ;
#301 = CARTESIAN_POINT ( 'NONE',  ( 0.000000000000000000, 0.000000000000000000, 3.000000000000000000 ) ) ;
#302 = DIRECTION ( 'NONE',  ( -0.000000000000000000, 0.000000000000000000, 1.000000000000000000 ) ) ;
#303 = DIRECTION ( 'NONE',  ( -1.000000000000000000, 0.000000000000000000, 0.000000000000000000 ) ) ;
#304 = APPROVAL_ROLE ( '' ) ;
#305 = ORIENTED_EDGE ( 'NONE', *, *, #943, .F. ) ;
#306 = ORIENTED_EDGE ( 'NONE', *, *, #406, .F. ) ;
#307 = DIRECTION ( 'NONE',  ( -0.000000000000000000, -0.000000000000000000, -1.000000000000000000 ) ) ;
#308 = DIRECTION ( 'NONE',  ( 1.000000000000000000, 0.000000000000000000, 0.000000000000000000 ) ) ;
#309 = AXIS2_PLACEMENT_3D ( 'NONE', #847, #272, #713 ) ;
#310 = VERTEX_POINT ( 'NONE', #815 ) ;
#311 = ORIENTED_EDGE ( 'NONE', *, *, #857, .F. ) ;
#312 = CARTESIAN_POINT ( 'NONE',  ( -111.8697156828021235, -78.87520119016677711, -3.000000000000000000 ) ) ;
#313 = ADVANCED_FACE ( 'NONE', ( #84 ), #378, .T. ) ;
#314 = CARTESIAN_POINT ( 'NONE',  ( -55.58781355654533485, -87.18329428385102631, -3.000000000000000000 ) ) ;
#315 = ORIENTED_EDGE ( 'NONE', *, *, #498, .F. ) ;
#316 = EDGE_LOOP ( 'NONE', ( #733, #311, #800, #296 ) ) ;
#317 = PLANE ( 'NONE',  #548 ) ;
#318 = EDGE_CURVE ( 'NONE', #639, #409, #447, .T. ) ;
#319 = DIRECTION ( 'NONE',  ( 0.000000000000000000, 0.000000000000000000, 1.000000000000000000 ) ) ;
#320 = EDGE_LOOP ( 'NONE', ( #813, #630, #636, #8 ) ) ;
#321 = ORIENTED_EDGE ( 'NONE', *, *, #147, .T. ) ;
#322 = DIRECTION ( 'NONE',  ( -1.000000000000000000, 0.000000000000000000, 0.000000000000000000 ) ) ;
#323 = CARTESIAN_POINT ( 'NONE',  ( -69.26911083747829423, -84.15931489612512451, -2.000000000000000000 ) ) ;
#324 = EDGE_CURVE ( 'NONE', #840, #14, #914, .T. ) ;
#325 = DIRECTION ( 'NONE',  ( 1.000000000000000000, -3.657118196434064207E-16, 0.000000000000000000 ) ) ;
#326 = CIRCLE ( 'NONE', #778, 6.000000000000005329 ) ;
#327 = VECTOR ( 'NONE', #33, 1000.000000000000000 ) ;
#328 = EDGE_LOOP ( 'NONE', ( #616, #827, #795, #187 ) ) ;
#329 = CARTESIAN_POINT ( 'NONE',  ( 0.000000000000000000, 0.000000000000000000, -2.000000000000000000 ) ) ;
#330 = CIRCLE ( 'NONE', #746, 2.249999999999876987 ) ;
#331 = CARTESIAN_POINT ( 'NONE',  ( -70.25831932297082005, -75.31778386218931587, 3.000000000000000000 ) ) ;
#332 = APPROVAL_STATUS ( 'not_yet_approved' ) ;
#333 = CARTESIAN_POINT ( 'NONE',  ( -72.30467813820297351, -77.51150572225309077, -2.000000000000000000 ) ) ;
#334 = ORIENTED_EDGE ( 'NONE', *, *, #256, .F. ) ;
#335 = UNCERTAINTY_MEASURE_WITH_UNIT (LENGTH_MEASURE( 1.000000000000000082E-05 ), #884, 'distance_accuracy_value', 'NONE');
#336 = DIRECTION ( 'NONE',  ( -0.000000000000000000, -0.000000000000000000, -1.000000000000000000 ) ) ;
#337 = CARTESIAN_POINT ( 'NONE',  ( -106.9473319220196572, -88.51150572225307656, -3.000000000000000000 ) ) ;
#338 = VERTEX_POINT ( 'NONE', #323 ) ;
#339 = DIRECTION ( 'NONE',  ( -1.000000000000000000, 0.000000000000000000, 0.000000000000000000 ) ) ;
#340 = APPROVAL ( #332, 'UNSPECIFIED' ) ;
#341 = CARTESIAN_POINT ( 'NONE',  ( -69.39621012341864059, -84.31373565740241816, 2.000000000000000000 ) ) ;
#342 = AXIS2_PLACEMENT_3D ( 'NONE', #266, #138, #477 ) ;
#343 = EDGE_LOOP ( 'NONE', ( #43, #177, #844, #134, #674 ) ) ;
#344 = AXIS2_PLACEMENT_3D ( 'NONE', #870, #568, #860 ) ;
#345 = CARTESIAN_POINT ( 'NONE',  ( -109.6197156828022514, -78.87520119016677711, -3.000000000000000000 ) ) ;
#346 = LOCAL_TIME ( 14, 58, 56.00000000000000000, #80 ) ;
#347 = ADVANCED_FACE ( 'NONE', ( #614 ), #769, .F. ) ;
#348 = EDGE_CURVE ( 'NONE', #495, #114, #40, .T. ) ;
#349 = DIRECTION ( 'NONE',  ( 0.000000000000000000, 0.000000000000000000, 1.000000000000000000 ) ) ;
#350 = ORIENTED_EDGE ( 'NONE', *, *, #395, .T. ) ;
#351 = DIRECTION ( 'NONE',  ( 1.000000000000000000, 0.000000000000000000, 0.000000000000000000 ) ) ;
#352 = ORIENTED_EDGE ( 'NONE', *, *, #939, .F. ) ;
#353 = CARTESIAN_POINT ( 'NONE',  ( 0.000000000000000000, 0.000000000000000000, 2.000000000000000000 ) ) ;
#354 = VERTEX_POINT ( 'NONE', #624 ) ;
#355 = CIRCLE ( 'NONE', #645, 0.1999999999999987899 ) ;
#356 = DIRECTION ( 'NONE',  ( -0.000000000000000000, -0.000000000000000000, -1.000000000000000000 ) ) ;
#357 = AXIS2_PLACEMENT_3D ( 'NONE', #95, #261, #923 ) ;
#358 = CIRCLE ( 'NONE', #945, 0.2000000000000057288 ) ;
#359 = ADVANCED_FACE ( 'NONE', ( #254 ), #835, .F. ) ;
#360 = ORIENTED_EDGE ( 'NONE', *, *, #905, .F. ) ;
#361 = CARTESIAN_POINT ( 'NONE',  ( 0.000000000000000000, 0.000000000000000000, 3.000000000000000000 ) ) ;
#362 = DIRECTION ( 'NONE',  ( 1.000000000000000000, 0.000000000000000000, 0.000000000000000000 ) ) ;
#363 = DATE_TIME_ROLE ( 'creation_date' ) ;
#364 = ORIENTED_EDGE ( 'NONE', *, *, #799, .T. ) ;
#365 = DIRECTION ( 'NONE',  ( -0.000000000000000000, 0.000000000000000000, 1.000000000000000000 ) ) ;
#366 = CARTESIAN_POINT ( 'NONE',  ( -106.9473319220196572, -88.51150572225307656, -3.000000000000000000 ) ) ;
#367 = APPROVAL_STATUS ( 'not_yet_approved' ) ;
#368 = EDGE_LOOP ( 'NONE', ( #583, #666, #240, #893 ) ) ;
#369 = CYLINDRICAL_SURFACE ( 'NONE', #373, 0.2000000000000057288 ) ;
#370 = EDGE_CURVE ( 'NONE', #109, #601, #698, .T. ) ;
#371 = CARTESIAN_POINT ( 'NONE',  ( -100.9473319220196572, -88.51150572225307656, 2.499999999999976019 ) ) ;
#372 = AXIS2_PLACEMENT_3D ( 'NONE', #589, #599, #455 ) ;
#373 = AXIS2_PLACEMENT_3D ( 'NONE', #383, #744, #149 ) ;
#374 = CIRCLE ( 'NONE', #715, 103.0000000000000000 ) ;
#375 = CALENDAR_DATE ( 2025, 5, 11 ) ;
#376 = ORIENTED_EDGE ( 'NONE', *, *, #873, .F. ) ;
#377 = DIRECTION ( 'NONE',  ( 1.000000000000000000, 0.000000000000000000, 0.000000000000000000 ) ) ;
#378 = CYLINDRICAL_SURFACE ( 'NONE', #725, 13.99999999999999822 ) ;
#379 = DATE_AND_TIME ( #600, #868 ) ;
#380 = ORIENTED_EDGE ( 'NONE', *, *, #387, .F. ) ;
#381 = CC_DESIGN_PERSON_AND_ORGANIZATION_ASSIGNMENT ( #13, #300, ( #204 ) ) ;
#382 = ORIENTED_EDGE ( 'NONE', *, *, #774, .T. ) ;
#383 = CARTESIAN_POINT ( 'NONE',  ( -69.39621012341864059, -84.31373565740241816, 3.000000000000000000 ) ) ;
#384 = FACE_OUTER_BOUND ( 'NONE', #136, .T. ) ;
#385 = EDGE_CURVE ( 'NONE', #96, #213, #773, .T. ) ;
#386 = VERTEX_POINT ( 'NONE', #398 ) ;
#387 = EDGE_CURVE ( 'NONE', #911, #940, #111, .T. ) ;
#388 = VERTEX_POINT ( 'NONE', #552 ) ;
#389 = CARTESIAN_POINT ( 'NONE',  ( 0.000000000000000000, 0.000000000000000000, 2.000000000000000000 ) ) ;
#390 = CARTESIAN_POINT ( 'NONE',  ( -106.9473319220196572, -88.51150572225307656, 2.499999999999976019 ) ) ;
#391 = CIRCLE ( 'NONE', #834, 13.99999999999999822 ) ;
#392 = AXIS2_PLACEMENT_3D ( 'NONE', #558, #243, #690 ) ;
#393 = CARTESIAN_POINT ( 'NONE',  ( -110.2210020289782761, -76.70703267044756046, -3.000000000000000000 ) ) ;
#394 = CIRCLE ( 'NONE', #837, 13.99999999999999822 ) ;
#395 = EDGE_CURVE ( 'NONE', #354, #511, #846, .T. ) ;
#396 = VERTEX_POINT ( 'NONE', #405 ) ;
#397 = DIRECTION ( 'NONE',  ( 1.000000000000000000, 0.000000000000000000, 0.000000000000000000 ) ) ;
#398 = CARTESIAN_POINT ( 'NONE',  ( -120.9473319220196572, -88.51150572225307656, -3.000000000000000000 ) ) ;
#399 = ORIENTED_EDGE ( 'NONE', *, *, #147, .F. ) ;
#400 = VERTEX_POINT ( 'NONE', #920 ) ;
#401 = PLANE ( 'NONE',  #101 ) ;
#402 = CARTESIAN_POINT ( 'NONE',  ( -101.4814087114246206, -77.54855979262835319, 0.000000000000000000 ) ) ;
#403 = CYLINDRICAL_SURFACE ( 'NONE', #545, 103.0000000000000000 ) ;
#404 = CARTESIAN_POINT ( 'NONE',  ( -79.55523562282148475, -74.51150572225307656, -2.000000000000000000 ) ) ;
#405 = CARTESIAN_POINT ( 'NONE',  ( -109.0184293366261983, -81.04336970988610744, 0.000000000000000000 ) ) ;
#406 = EDGE_CURVE ( 'NONE', #871, #495, #686, .T. ) ;
#407 = DIRECTION ( 'NONE',  ( 1.000000000000000000, 0.000000000000000000, 0.000000000000000000 ) ) ;
#408 = AXIS2_PLACEMENT_3D ( 'NONE', #41, #704, #554 ) ;
#409 = VERTEX_POINT ( 'NONE', #618 ) ;
#410 = CYLINDRICAL_SURFACE ( 'NONE', #714, 6.000000000000005329 ) ;
#411 = CARTESIAN_POINT ( 'NONE',  ( -106.9473319220196572, -88.51150572225307656, -3.000000000000000000 ) ) ;
#412 = ORIENTED_EDGE ( 'NONE', *, *, #504, .F. ) ;
#413 = DIRECTION ( 'NONE',  ( 0.000000000000000000, 0.000000000000000000, 1.000000000000000000 ) ) ;
#414 = CARTESIAN_POINT ( 'NONE',  ( -72.30467813820297351, -74.51150572225307656, -2.000000000000000000 ) ) ;
#415 = EDGE_CURVE ( 'NONE', #114, #60, #605, .T. ) ;
#416 = ORIENTED_EDGE ( 'NONE', *, *, #685, .F. ) ;
#417 = DIRECTION ( 'NONE',  ( -1.000000000000000000, 0.000000000000000000, 0.000000000000000000 ) ) ;
#418 = CARTESIAN_POINT ( 'NONE',  ( -100.9473319220196572, -88.51150572225307656, -2.500000000000003997 ) ) ;
#419 = ORIENTED_EDGE ( 'NONE', *, *, #747, .T. ) ;
#420 = EDGE_CURVE ( 'NONE', #570, #409, #168, .T. ) ;
#421 = CARTESIAN_POINT ( 'NONE',  ( -106.9473319220196572, -88.51150572225307656, 3.000000000000000000 ) ) ;
#422 = CIRCLE ( 'NONE', #159, 3.000000000000002665 ) ;
#423 = ORIENTED_EDGE ( 'NONE', *, *, #271, .T. ) ;
#424 = CARTESIAN_POINT ( 'NONE',  ( -111.8697156828021235, -78.87520119016677711, 0.000000000000000000 ) ) ;
#425 = EDGE_CURVE ( 'NONE', #279, #354, #497, .T. ) ;
#426 = ORIENTED_EDGE ( 'NONE', *, *, #669, .F. ) ;
#427 = DIRECTION ( 'NONE',  ( -1.000000000000000000, 0.000000000000000000, 0.000000000000000000 ) ) ;
#428 = ORIENTED_EDGE ( 'NONE', *, *, #732, .F. ) ;
#429 = AXIS2_PLACEMENT_3D ( 'NONE', #853, #349, #553 ) ;
#430 = CARTESIAN_POINT ( 'NONE',  ( -111.8697156828021235, -78.87520119016677711, 0.000000000000000000 ) ) ;
#431 = AXIS2_PLACEMENT_3D ( 'NONE', #503, #798, #135 ) ;
#432 = VECTOR ( 'NONE', #167, 1000.000000000000000 ) ;
#433 = CARTESIAN_POINT ( 'NONE',  ( -55.40359269950465659, -86.82995978340308341, -3.000000000000000000 ) ) ;
#434 = ORIENTED_EDGE ( 'NONE', *, *, #260, .F. ) ;
#435 = DIRECTION ( 'NONE',  ( 0.000000000000000000, 0.000000000000000000, -1.000000000000000000 ) ) ;
#436 = CARTESIAN_POINT ( 'NONE',  ( -68.99999999999911893, -119.5115057222530908, -2.000000000000000000 ) ) ;
#437 = APPROVAL_DATE_TIME ( #582, #68 ) ;
#438 = ORIENTED_EDGE ( 'NONE', *, *, #281, .F. ) ;
#439 = EDGE_CURVE ( 'NONE', #911, #338, #251, .T. ) ;
#440 = EDGE_CURVE ( 'NONE', #396, #60, #183, .T. ) ;
#441 = LINE ( 'NONE', #3, #587 ) ;
#442 = CARTESIAN_POINT ( 'NONE',  ( -69.26911083747829423, -84.15931489612512451, -2.000000000000000000 ) ) ;
#443 = APPROVAL_DATE_TIME ( #85, #207 ) ;
#444 = ORIENTED_EDGE ( 'NONE', *, *, #72, .T. ) ;
#445 = DIRECTION ( 'NONE',  ( 0.000000000000000000, 0.000000000000000000, -1.000000000000000000 ) ) ;
#446 = DIRECTION ( 'NONE',  ( 0.000000000000000000, 0.000000000000000000, 1.000000000000000000 ) ) ;
#447 = CIRCLE ( 'NONE', #850, 34.99999999999994316 ) ;
#448 = CIRCLE ( 'NONE', #699, 6.000000000000005329 ) ;
#449 = CC_DESIGN_APPROVAL ( #340, ( #204 ) ) ;
#450 = APPLICATION_PROTOCOL_DEFINITION ( 'international standard', 'config_control_design', 1994, #867 ) ;
#451 = LINE ( 'NONE', #227, #925 ) ;
#452 = VERTEX_POINT ( 'NONE', #479 ) ;
#453 = LINE ( 'NONE', #297, #807 ) ;
#454 = APPLICATION_CONTEXT ( 'configuration controlled 3d designs of mechanical parts and assemblies' ) ;
#455 = DIRECTION ( 'NONE',  ( -1.000000000000000000, 0.000000000000000000, 0.000000000000000000 ) ) ;
#456 = ADVANCED_FACE ( 'NONE', ( #115 ), #410, .F. ) ;
#457 = APPLICATION_PROTOCOL_DEFINITION ( 'international standard', 'config_control_design', 1994, #454 ) ;
#458 = ORIENTED_EDGE ( 'NONE', *, *, #761, .T. ) ;
#459 = ORIENTED_EDGE ( 'NONE', *, *, #281, .T. ) ;
#460 = CARTESIAN_POINT ( 'NONE',  ( -72.30467813820297351, -74.51150572225307656, 2.000000000000000000 ) ) ;
#461 = CARTESIAN_POINT ( 'NONE',  ( 0.000000000000000000, 0.000000000000000000, -2.000000000000000000 ) ) ;
#462 = ADVANCED_FACE ( 'NONE', ( #29 ), #513, .F. ) ;
#463 = DIRECTION ( 'NONE',  ( -0.000000000000000000, 0.000000000000000000, 1.000000000000000000 ) ) ;
#464 = ORIENTED_EDGE ( 'NONE', *, *, #845, .T. ) ;
#465 = DIRECTION ( 'NONE',  ( 0.000000000000000000, 0.000000000000000000, 1.000000000000000000 ) ) ;
#466 = CARTESIAN_POINT ( 'NONE',  ( 0.000000000000000000, 0.000000000000000000, -2.000000000000000000 ) ) ;
#467 = CIRCLE ( 'NONE', #25, 6.000000000000005329 ) ;
#468 = AXIS2_PLACEMENT_3D ( 'NONE', #485, #282, #640 ) ;
#469 = EDGE_LOOP ( 'NONE', ( #103, #306, #151, #259 ) ) ;
#470 = AXIS2_PLACEMENT_3D ( 'NONE', #523, #768, #246 ) ;
#471 = DIRECTION ( 'NONE',  ( 0.000000000000000000, 0.000000000000000000, -1.000000000000000000 ) ) ;
#472 = DIRECTION ( 'NONE',  ( 0.000000000000000000, 0.000000000000000000, -1.000000000000000000 ) ) ;
#473 = ORIENTED_EDGE ( 'NONE', *, *, #370, .F. ) ;
#474 = VERTEX_POINT ( 'NONE', #314 ) ;
#475 = LINE ( 'NONE', #828, #130 ) ;
#476 = DIRECTION ( 'NONE',  ( -1.000000000000000000, 0.000000000000000000, 0.000000000000000000 ) ) ;
#477 = DIRECTION ( 'NONE',  ( -1.000000000000000000, 0.000000000000000000, 0.000000000000000000 ) ) ;
#478 = EDGE_LOOP ( 'NONE', ( #428, #703, #626, #895 ) ) ;
#479 = CARTESIAN_POINT ( 'NONE',  ( -100.4473319220196288, -88.51150572225307656, 3.000000000000000000 ) ) ;
#480 = VECTOR ( 'NONE', #740, 1000.000000000000000 ) ;
#481 = CARTESIAN_POINT ( 'NONE',  ( -103.4892988704185370, -81.57576441983708548, -3.000000000000000000 ) ) ;
#482 = CIRCLE ( 'NONE', #646, 2.249999999999876987 ) ;
#483 = AXIS2_PLACEMENT_3D ( 'NONE', #534, #110, #694 ) ;
#484 = EDGE_LOOP ( 'NONE', ( #926, #502 ) ) ;
#485 = CARTESIAN_POINT ( 'NONE',  ( -68.99999999999911893, -119.5115057222530908, -3.000000000000000000 ) ) ;
#486 = EDGE_CURVE ( 'NONE', #104, #474, #819, .T. ) ;
#487 = FACE_OUTER_BOUND ( 'NONE', #518, .T. ) ;
#488 = ORIENTED_EDGE ( 'NONE', *, *, #199, .T. ) ;
#489 = DIRECTION ( 'NONE',  ( -0.000000000000000000, -0.000000000000000000, 1.000000000000000000 ) ) ;
#490 = CARTESIAN_POINT ( 'NONE',  ( -55.58781355654533485, -87.18329428385102631, 3.000000000000000000 ) ) ;
#491 = ADVANCED_FACE ( 'NONE', ( #564 ), #764, .F. ) ;
#492 = ORIENTED_EDGE ( 'NONE', *, *, #631, .F. ) ;
#493 = FACE_OUTER_BOUND ( 'NONE', #469, .T. ) ;
#494 = CIRCLE ( 'NONE', #248, 6.500000000000033751 ) ;
#495 = VERTEX_POINT ( 'NONE', #787 ) ;
#496 = CIRCLE ( 'NONE', #585, 6.500000000000033751 ) ;
#497 = CIRCLE ( 'NONE', #392, 3.000000000000002665 ) ;
#498 = EDGE_CURVE ( 'NONE', #86, #114, #198, .T. ) ;
#499 = LINE ( 'NONE', #791, #745 ) ;
#500 = APPROVAL_PERSON_ORGANIZATION ( #749, #340, #687 ) ;
#501 = PRODUCT_DEFINITION_SHAPE ( 'NONE', 'NONE',  #180 ) ;
#502 = ORIENTED_EDGE ( 'NONE', *, *, #285, .T. ) ;
#503 = CARTESIAN_POINT ( 'NONE',  ( -106.9473319220196572, -88.51150572225307656, 0.000000000000000000 ) ) ;
#504 = EDGE_CURVE ( 'NONE', #60, #840, #680, .T. ) ;
#505 = ORIENTED_EDGE ( 'NONE', *, *, #385, .T. ) ;
#506 = CARTESIAN_POINT ( 'NONE',  ( -102.4853537909215504, -79.56216210623264828, 0.000000000000000000 ) ) ;
#507 = DIRECTION ( 'NONE',  ( -0.000000000000000000, -0.000000000000000000, -1.000000000000000000 ) ) ;
#508 = AXIS2_PLACEMENT_3D ( 'NONE', #907, #463, #526 ) ;
#509 = DIRECTION ( 'NONE',  ( 0.7071067811865517916, 0.000000000000000000, 0.7071067811865432429 ) ) ;
#510 = CC_DESIGN_DATE_AND_TIME_ASSIGNMENT ( #816, #157, ( #204 ) ) ;
#511 = VERTEX_POINT ( 'NONE', #124 ) ;
#512 = LINE ( 'NONE', #593, #900 ) ;
#513 = CONICAL_SURFACE ( 'NONE', #236, 6.000000000000005329, 0.7853981633974543852 ) ;
#514 = VECTOR ( 'NONE', #252, 1000.000000000000000 ) ;
#515 = FACE_BOUND ( 'NONE', #484, .T. ) ;
#516 = ADVANCED_FACE ( 'NONE', ( #709 ), #643, .F. ) ;
#517 =( NAMED_UNIT ( * ) PLANE_ANGLE_UNIT ( ) SI_UNIT ( $, .RADIAN. ) );
#518 = EDGE_LOOP ( 'NONE', ( #742, #315, #58, #76 ) ) ;
#519 = DIRECTION ( 'NONE',  ( -0.000000000000000000, -0.000000000000000000, -1.000000000000000000 ) ) ;
#520 = DIRECTION ( 'NONE',  ( 1.000000000000000000, 0.000000000000000000, 0.000000000000000000 ) ) ;
#521 = CALENDAR_DATE ( 2025, 5, 11 ) ;
#522 = ORIENTED_EDGE ( 'NONE', *, *, #856, .T. ) ;
#523 = CARTESIAN_POINT ( 'NONE',  ( -109.6197156828022514, -78.87520119016677711, 0.000000000000000000 ) ) ;
#524 = DIRECTION ( 'NONE',  ( -0.000000000000000000, 0.000000000000000000, 1.000000000000000000 ) ) ;
#525 = CALENDAR_DATE ( 2025, 5, 11 ) ;
#526 = DIRECTION ( 'NONE',  ( 1.000000000000000000, 0.000000000000000000, 0.000000000000000000 ) ) ;
#527 = CIRCLE ( 'NONE', #878, 3.000000000000002665 ) ;
#528 = CARTESIAN_POINT ( 'NONE',  ( -70.25831932297082005, -75.31778386218931587, 3.000000000000000000 ) ) ;
#529 = ADVANCED_FACE ( 'NONE', ( #49 ), #571, .T. ) ;
#530 = DIRECTION ( 'NONE',  ( 0.000000000000000000, 0.000000000000000000, 1.000000000000000000 ) ) ;
#531 = AXIS2_PLACEMENT_3D ( 'NONE', #882, #137, #145 ) ;
#532 = ORIENTED_EDGE ( 'NONE', *, *, #280, .F. ) ;
#533 = ORIENTED_EDGE ( 'NONE', *, *, #830, .T. ) ;
#534 = CARTESIAN_POINT ( 'NONE',  ( -109.6197156828022514, -78.87520119016677711, 0.000000000000000000 ) ) ;
#535 = EDGE_CURVE ( 'NONE', #86, #396, #931, .T. ) ;
#536 = DIRECTION ( 'NONE',  ( 0.000000000000000000, 0.000000000000000000, -1.000000000000000000 ) ) ;
#537 = FACE_BOUND ( 'NONE', #937, .T. ) ;
#538 = DIRECTION ( 'NONE',  ( 0.000000000000000000, 0.000000000000000000, -1.000000000000000000 ) ) ;
#539 = CARTESIAN_POINT ( 'NONE',  ( -55.51117249115417707, -86.99856164706017125, -3.000000000000000000 ) ) ;
#540 = FACE_OUTER_BOUND ( 'NONE', #131, .T. ) ;
#541 = ORIENTED_EDGE ( 'NONE', *, *, #898, .T. ) ;
#542 = CARTESIAN_POINT ( 'NONE',  ( -109.6197156828022514, -78.87520119016677711, 0.000000000000000000 ) ) ;
#543 = AXIS2_PLACEMENT_3D ( 'NONE', #244, #750, #770 ) ;
#544 = CARTESIAN_POINT ( 'NONE',  ( -109.0184293366261983, -81.04336970988610744, 0.000000000000000000 ) ) ;
#545 = AXIS2_PLACEMENT_3D ( 'NONE', #301, #50, #181 ) ;
#546 = AXIS2_PLACEMENT_3D ( 'NONE', #506, #872, #579 ) ;
#547 = VERTEX_POINT ( 'NONE', #424 ) ;
#548 = AXIS2_PLACEMENT_3D ( 'NONE', #613, #237, #896 ) ;
#549 = EDGE_CURVE ( 'NONE', #547, #160, #482, .T. ) ;
#550 = ORIENTED_EDGE ( 'NONE', *, *, #420, .T. ) ;
#551 = FACE_OUTER_BOUND ( 'NONE', #81, .T. ) ;
#552 = CARTESIAN_POINT ( 'NONE',  ( -55.40359269950465659, -86.82995978340308341, 2.000000000000000000 ) ) ;
#553 = DIRECTION ( 'NONE',  ( 1.000000000000000000, 0.000000000000000000, 0.000000000000000000 ) ) ;
#554 = DIRECTION ( 'NONE',  ( 1.000000000000000000, 0.000000000000000000, 0.000000000000000000 ) ) ;
#555 = SHAPE_DEFINITION_REPRESENTATION ( #501, #628 ) ;
#556 = CARTESIAN_POINT ( 'NONE',  ( -106.9473319220196572, -74.51150572225306234, 3.000000000000000000 ) ) ;
#557 = ORIENTED_EDGE ( 'NONE', *, *, #440, .F. ) ;
#558 = CARTESIAN_POINT ( 'NONE',  ( -72.30467813820297351, -77.51150572225309077, -3.000000000000000000 ) ) ;
#559 = EDGE_CURVE ( 'NONE', #310, #854, #722, .T. ) ;
#560 = CYLINDRICAL_SURFACE ( 'NONE', #309, 0.1999999999999987899 ) ;
#561 = VECTOR ( 'NONE', #277, 1000.000000000000000 ) ;
#562 =( GEOMETRIC_REPRESENTATION_CONTEXT ( 3 ) GLOBAL_UNCERTAINTY_ASSIGNED_CONTEXT ( ( #335 ) ) GLOBAL_UNIT_ASSIGNED_CONTEXT ( ( #884, #517, #295 ) ) REPRESENTATION_CONTEXT ( 'NONE', 'WORKASPACE' ) );
#563 = EDGE_LOOP ( 'NONE', ( #751, #648, #821, #305 ) ) ;
#564 = FACE_OUTER_BOUND ( 'NONE', #912, .T. ) ;
#565 = ADVANCED_FACE ( 'NONE', ( #493 ), #637, .F. ) ;
#566 = DIRECTION ( 'NONE',  ( 1.000000000000000000, 0.000000000000000000, 0.000000000000000000 ) ) ;
#567 = ORIENTED_EDGE ( 'NONE', *, *, #153, .F. ) ;
#568 = DIRECTION ( 'NONE',  ( -0.000000000000000000, -0.000000000000000000, -1.000000000000000000 ) ) ;
#569 = CARTESIAN_POINT ( 'NONE',  ( -106.9473319220196572, -74.51150572225306234, -3.000000000000000000 ) ) ;
#570 = VERTEX_POINT ( 'NONE', #201 ) ;
#571 = CYLINDRICAL_SURFACE ( 'NONE', #64, 0.1999999999999987899 ) ;
#572 = EDGE_CURVE ( 'NONE', #940, #862, #269, .T. ) ;
#573 = ORIENTED_EDGE ( 'NONE', *, *, #133, .T. ) ;
#574 = AXIS2_PLACEMENT_3D ( 'NONE', #421, #190, #351 ) ;
#575 = FACE_OUTER_BOUND ( 'NONE', #273, .T. ) ;
#576 = ORIENTED_EDGE ( 'NONE', *, *, #318, .T. ) ;
#577 = FACE_OUTER_BOUND ( 'NONE', #31, .T. ) ;
#578 = EDGE_LOOP ( 'NONE', ( #62, #817, #611, #382 ) ) ;
#579 = DIRECTION ( 'NONE',  ( -1.000000000000000000, 0.000000000000000000, 0.000000000000000000 ) ) ;
#580 = EDGE_CURVE ( 'NONE', #639, #109, #499, .T. ) ;
#581 = DIRECTION ( 'NONE',  ( 1.000000000000000000, 0.000000000000000000, 0.000000000000000000 ) ) ;
#582 = DATE_AND_TIME ( #375, #346 ) ;
#583 = ORIENTED_EDGE ( 'NONE', *, *, #211, .F. ) ;
#584 = CIRCLE ( 'NONE', #127, 3.000000000000002665 ) ;
#585 = AXIS2_PLACEMENT_3D ( 'NONE', #887, #748, #308 ) ;
#586 = LINE ( 'NONE', #67, #140 ) ;
#587 = VECTOR ( 'NONE', #445, 1000.000000000000000 ) ;
#588 = ORGANIZATION ( 'UNSPECIFIED', 'UNSPECIFIED', '' ) ;
#589 = CARTESIAN_POINT ( 'NONE',  ( -68.99999999999911893, -119.5115057222530908, 3.000000000000000000 ) ) ;
#590 = EDGE_CURVE ( 'NONE', #96, #654, #727, .T. ) ;
#591 = COORDINATED_UNIVERSAL_TIME_OFFSET ( 0, 0, .AHEAD. ) ;
#592 = ORIENTED_EDGE ( 'NONE', *, *, #943, .T. ) ;
#593 = CARTESIAN_POINT ( 'NONE',  ( -110.2210020289782761, -76.70703267044756046, 0.000000000000000000 ) ) ;
#594 = DIRECTION ( 'NONE',  ( 0.000000000000000000, 0.000000000000000000, 1.000000000000000000 ) ) ;
#595 = COORDINATED_UNIVERSAL_TIME_OFFSET ( 0, 0, .AHEAD. ) ;
#596 = ORIENTED_EDGE ( 'NONE', *, *, #597, .F. ) ;
#597 = EDGE_CURVE ( 'NONE', #474, #400, #793, .T. ) ;
#598 = CARTESIAN_POINT ( 'NONE',  ( -120.9473319220196572, -88.51150572225307656, 3.000000000000000000 ) ) ;
#599 = DIRECTION ( 'NONE',  ( -0.000000000000000000, -0.000000000000000000, -1.000000000000000000 ) ) ;
#600 = CALENDAR_DATE ( 2025, 5, 11 ) ;
#601 = VERTEX_POINT ( 'NONE', #796 ) ;
#602 = DIRECTION ( 'NONE',  ( 1.000000000000000000, 0.000000000000000000, -0.000000000000000000 ) ) ;
#603 = AXIS2_PLACEMENT_3D ( 'NONE', #291, #883, #673 ) ;
#604 = CARTESIAN_POINT ( 'NONE',  ( -106.9473319220196572, -88.51150572225307656, 3.000000000000000000 ) ) ;
#605 = CIRCLE ( 'NONE', #357, 7.750000000000145661 ) ;
#606 = PRODUCT_DEFINITION_FORMATION_WITH_SPECIFIED_SOURCE ( 'ANY', '', #839, .NOT_KNOWN. ) ;
#607 = ORIENTED_EDGE ( 'NONE', *, *, #415, .F. ) ;
#608 = ORIENTED_EDGE ( 'NONE', *, *, #905, .T. ) ;
#609 = CARTESIAN_POINT ( 'NONE',  ( -72.30467813820297351, -77.51150572225309077, 3.000000000000000000 ) ) ;
#610 = CARTESIAN_POINT ( 'NONE',  ( -106.9473319220196572, -88.51150572225307656, 3.000000000000000000 ) ) ;
#611 = ORIENTED_EDGE ( 'NONE', *, *, #559, .T. ) ;
#612 = VERTEX_POINT ( 'NONE', #132 ) ;
#613 = CARTESIAN_POINT ( 'NONE',  ( -2.724973834205527653E-14, -74.51150572225310498, 3.000000000000000000 ) ) ;
#614 = FACE_OUTER_BOUND ( 'NONE', #578, .T. ) ;
#615 = VERTEX_POINT ( 'NONE', #61 ) ;
#616 = ORIENTED_EDGE ( 'NONE', *, *, #549, .F. ) ;
#617 = FACE_OUTER_BOUND ( 'NONE', #328, .T. ) ;
#618 = CARTESIAN_POINT ( 'NONE',  ( -69.39395892953557166, -84.51372298731638466, 2.000000000000000000 ) ) ;
#619 = AXIS2_PLACEMENT_3D ( 'NONE', #113, #255, #924 ) ;
#620 = AXIS2_PLACEMENT_3D ( 'NONE', #12, #524, #520 ) ;
#621 = DIRECTION ( 'NONE',  ( 1.000000000000000000, 0.000000000000000000, 0.000000000000000000 ) ) ;
#622 = CC_DESIGN_SECURITY_CLASSIFICATION ( #204, ( #606 ) ) ;
#623 = DIRECTION ( 'NONE',  ( 0.000000000000000000, 0.000000000000000000, 1.000000000000000000 ) ) ;
#624 = CARTESIAN_POINT ( 'NONE',  ( -70.25831932297080584, -75.31778386218930166, -3.000000000000000000 ) ) ;
#625 = FACE_OUTER_BOUND ( 'NONE', #368, .T. ) ;
#626 = ORIENTED_EDGE ( 'NONE', *, *, #72, .F. ) ;
#627 = DIRECTION ( 'NONE',  ( -1.000000000000000000, 0.000000000000000000, 0.000000000000000000 ) ) ;
#628 = ADVANCED_BREP_SHAPE_REPRESENTATION ( '0 - FTCM1130-011', ( #929, #65 ), #562 ) ;
#629 = CARTESIAN_POINT ( 'NONE',  ( -72.30467813820297351, -77.51150572225309077, 2.000000000000000000 ) ) ;
#630 = ORIENTED_EDGE ( 'NONE', *, *, #192, .T. ) ;
#631 = EDGE_CURVE ( 'NONE', #940, #612, #851, .T. ) ;
#632 = DIRECTION ( 'NONE',  ( 1.000000000000000000, 0.000000000000000000, 0.000000000000000000 ) ) ;
#633 = DIRECTION ( 'NONE',  ( 1.000000000000000000, 0.000000000000000000, 0.000000000000000000 ) ) ;
#634 = VECTOR ( 'NONE', #906, 1000.000000000000000 ) ;
#635 = VECTOR ( 'NONE', #509, 1000.000000000000000 ) ;
#636 = ORIENTED_EDGE ( 'NONE', *, *, #142, .T. ) ;
#637 = CYLINDRICAL_SURFACE ( 'NONE', #171, 12.24999999999987210 ) ;
#638 = DIRECTION ( 'NONE',  ( 0.000000000000000000, 0.000000000000000000, 1.000000000000000000 ) ) ;
#639 = VERTEX_POINT ( 'NONE', #941 ) ;
#640 = DIRECTION ( 'NONE',  ( 1.000000000000000000, 0.000000000000000000, 0.000000000000000000 ) ) ;
#641 = ADVANCED_FACE ( 'NONE', ( #575 ), #206, .T. ) ;
#642 = ORIENTED_EDGE ( 'NONE', *, *, #439, .T. ) ;
#643 = CYLINDRICAL_SURFACE ( 'NONE', #894, 103.0000000000000000 ) ;
#644 = ORIENTED_EDGE ( 'NONE', *, *, #229, .F. ) ;
#645 = AXIS2_PLACEMENT_3D ( 'NONE', #903, #222, #657 ) ;
#646 = AXIS2_PLACEMENT_3D ( 'NONE', #863, #120, #417 ) ;
#647 = CARTESIAN_POINT ( 'NONE',  ( -106.9473319220196572, -88.51150572225307656, 0.000000000000000000 ) ) ;
#648 = ORIENTED_EDGE ( 'NONE', *, *, #184, .T. ) ;
#649 = ADVANCED_FACE ( 'NONE', ( #577 ), #369, .T. ) ;
#650 = DIRECTION ( 'NONE',  ( -0.000000000000000000, -0.000000000000000000, -1.000000000000000000 ) ) ;
#651 = DIRECTION ( 'NONE',  ( -1.000000000000000000, 0.000000000000000000, 0.000000000000000000 ) ) ;
#652 = LINE ( 'NONE', #234, #635 ) ;
#653 = EDGE_CURVE ( 'NONE', #287, #169, #586, .T. ) ;
#654 = VERTEX_POINT ( 'NONE', #598 ) ;
#655 = DIRECTION ( 'NONE',  ( -0.000000000000000000, 0.000000000000000000, 1.000000000000000000 ) ) ;
#656 = EDGE_CURVE ( 'NONE', #96, #182, #875, .T. ) ;
#657 = DIRECTION ( 'NONE',  ( 1.000000000000000000, 0.000000000000000000, 0.000000000000000000 ) ) ;
#658 = CC_DESIGN_PERSON_AND_ORGANIZATION_ASSIGNMENT ( #879, #219, ( #606 ) ) ;
#659 = APPROVAL_ROLE ( '' ) ;
#660 = VERTEX_POINT ( 'NONE', #667 ) ;
#661 = CARTESIAN_POINT ( 'NONE',  ( -108.2835238024109685, -83.69335345620993394, 0.000000000000000000 ) ) ;
#662 = AXIS2_PLACEMENT_3D ( 'NONE', #345, #855, #927 ) ;
#663 = APPROVAL_PERSON_ORGANIZATION ( #75, #207, #659 ) ;
#664 = CARTESIAN_POINT ( 'NONE',  ( -72.30467813820297351, -74.51150572225307656, 3.000000000000000000 ) ) ;
#665 = PERSON_AND_ORGANIZATION_ROLE ( 'design_supplier' ) ;
#666 = ORIENTED_EDGE ( 'NONE', *, *, #845, .F. ) ;
#667 = CARTESIAN_POINT ( 'NONE',  ( -55.40359269950465659, -86.82995978340308341, -2.000000000000000000 ) ) ;
#668 = DIRECTION ( 'NONE',  ( -1.000000000000000000, 0.000000000000000000, 0.000000000000000000 ) ) ;
#669 = EDGE_CURVE ( 'NONE', #93, #279, #441, .T. ) ;
#670 = ORIENTED_EDGE ( 'NONE', *, *, #766, .T. ) ;
#671 = ORIENTED_EDGE ( 'NONE', *, *, #229, .T. ) ;
#672 = CARTESIAN_POINT ( 'NONE',  ( -55.58781355654533485, -87.18329428385102631, -2.000000000000000000 ) ) ;
#673 = DIRECTION ( 'NONE',  ( 1.000000000000000000, 0.000000000000000000, 0.000000000000000000 ) ) ;
#674 = ORIENTED_EDGE ( 'NONE', *, *, #535, .T. ) ;
#675 = ORIENTED_EDGE ( 'NONE', *, *, #256, .T. ) ;
#676 = DIRECTION ( 'NONE',  ( -1.000000000000000000, 0.000000000000000000, 0.000000000000000000 ) ) ;
#677 = VECTOR ( 'NONE', #507, 1000.000000000000000 ) ;
#678 = CC_DESIGN_PERSON_AND_ORGANIZATION_ASSIGNMENT ( #7, #665, ( #606 ) ) ;
#679 = DIRECTION ( 'NONE',  ( 1.000000000000000000, 0.000000000000000000, 0.000000000000000000 ) ) ;
#680 = CIRCLE ( 'NONE', #662, 2.249999999999876987 ) ;
#681 = CIRCLE ( 'NONE', #294, 6.000000000000005329 ) ;
#682 = PLANE ( 'NONE',  #508 ) ;
#683 = ORIENTED_EDGE ( 'NONE', *, *, #348, .F. ) ;
#684 = CYLINDRICAL_SURFACE ( 'NONE', #56, 3.000000000000002665 ) ;
#685 = EDGE_CURVE ( 'NONE', #197, #148, #289, .T. ) ;
#686 = LINE ( 'NONE', #402, #327 ) ;
#687 = APPROVAL_ROLE ( '' ) ;
#688 = EDGE_LOOP ( 'NONE', ( #360, #889, #908, #275 ) ) ;
#689 = CARTESIAN_POINT ( 'NONE',  ( -72.30467813820297351, -77.51150572225309077, 3.000000000000000000 ) ) ;
#690 = DIRECTION ( 'NONE',  ( 1.000000000000000000, 0.000000000000000000, 0.000000000000000000 ) ) ;
#691 = COORDINATED_UNIVERSAL_TIME_OFFSET ( 0, 0, .AHEAD. ) ;
#692 = ORIENTED_EDGE ( 'NONE', *, *, #669, .T. ) ;
#693 = ORIENTED_EDGE ( 'NONE', *, *, #192, .F. ) ;
#694 = DIRECTION ( 'NONE',  ( -1.000000000000000000, 0.000000000000000000, 0.000000000000000000 ) ) ;
#695 = ADVANCED_FACE ( 'NONE', ( #890 ), #21, .T. ) ;
#696 = CARTESIAN_POINT ( 'NONE',  ( -69.39395892953557166, -84.51372298731638466, 3.000000000000000000 ) ) ;
#697 = CONICAL_SURFACE ( 'NONE', #290, 6.000000000000005329, 0.7853981633974543852 ) ;
#698 = CIRCLE ( 'NONE', #408, 34.99999999999994316 ) ;
#699 = AXIS2_PLACEMENT_3D ( 'NONE', #734, #811, #161 ) ;
#700 = EDGE_CURVE ( 'NONE', #854, #615, #801, .T. ) ;
#701 = FACE_OUTER_BOUND ( 'NONE', #208, .T. ) ;
#702 = AXIS2_PLACEMENT_3D ( 'NONE', #361, #302, #377 ) ;
#703 = ORIENTED_EDGE ( 'NONE', *, *, #4, .T. ) ;
#704 = DIRECTION ( 'NONE',  ( -0.000000000000000000, 0.000000000000000000, 1.000000000000000000 ) ) ;
#705 = CALENDAR_DATE ( 2025, 5, 11 ) ;
#706 = DIRECTION ( 'NONE',  ( -0.000000000000000000, 0.000000000000000000, 1.000000000000000000 ) ) ;
#707 = ADVANCED_FACE ( 'NONE', ( #221 ), #9, .F. ) ;
#708 = ORIENTED_EDGE ( 'NONE', *, *, #724, .T. ) ;
#709 = FACE_OUTER_BOUND ( 'NONE', #99, .T. ) ;
#710 = CARTESIAN_POINT ( 'NONE',  ( -106.9473319220196572, -88.51150572225307656, 3.000000000000000000 ) ) ;
#711 = EDGE_LOOP ( 'NONE', ( #522, #692, #797, #283, #505, #671, #738, #380 ) ) ;
#712 = CARTESIAN_POINT ( 'NONE',  ( -103.4892988704185370, -81.57576441983708548, 0.000000000000000000 ) ) ;
#713 = DIRECTION ( 'NONE',  ( -1.000000000000000000, 0.000000000000000000, 0.000000000000000000 ) ) ;
#714 = AXIS2_PLACEMENT_3D ( 'NONE', #45, #336, #627 ) ;
#715 = AXIS2_PLACEMENT_3D ( 'NONE', #389, #623, #242 ) ;
#716 = ORIENTED_EDGE ( 'NONE', *, *, #439, .F. ) ;
#717 = DIRECTION ( 'NONE',  ( 1.000000000000000000, 0.000000000000000000, 0.000000000000000000 ) ) ;
#718 = EDGE_CURVE ( 'NONE', #871, #86, #836, .T. ) ;
#719 = ORIENTED_EDGE ( 'NONE', *, *, #387, .T. ) ;
#720 = DIRECTION ( 'NONE',  ( -0.000000000000000000, -0.000000000000000000, -1.000000000000000000 ) ) ;
#721 = ORIENTED_EDGE ( 'NONE', *, *, #685, .T. ) ;
#722 = LINE ( 'NONE', #274, #561 ) ;
#723 = CIRCLE ( 'NONE', #543, 12.24999999999987210 ) ;
#724 = EDGE_CURVE ( 'NONE', #601, #400, #808, .T. ) ;
#725 = AXIS2_PLACEMENT_3D ( 'NONE', #950, #286, #668 ) ;
#726 = ORIENTED_EDGE ( 'NONE', *, *, #318, .F. ) ;
#727 = CIRCLE ( 'NONE', #574, 13.99999999999999822 ) ;
#728 = DIRECTION ( 'NONE',  ( -0.000000000000000000, -0.000000000000000000, -1.000000000000000000 ) ) ;
#729 = CARTESIAN_POINT ( 'NONE',  ( -106.9473319220196572, -88.51150572225307656, 2.499999999999976019 ) ) ;
#730 = EDGE_CURVE ( 'NONE', #547, #840, #284, .T. ) ;
#731 = DIRECTION ( 'NONE',  ( 0.000000000000000000, 0.000000000000000000, 1.000000000000000000 ) ) ;
#732 = EDGE_CURVE ( 'NONE', #169, #854, #448, .T. ) ;
#733 = ORIENTED_EDGE ( 'NONE', *, *, #730, .F. ) ;
#734 = CARTESIAN_POINT ( 'NONE',  ( -106.9473319220196572, -88.51150572225307656, -2.500000000000003997 ) ) ;
#735 = PERSON ( 'UNSPECIFIED', 'UNSPECIFIED', 'UNSPECIFIED', ('UNSPECIFIED'), ('UNSPECIFIED'), ('UNSPECIFIED') ) ;
#736 = CYLINDRICAL_SURFACE ( 'NONE', #372, 34.99999999999995026 ) ;
#737 = CARTESIAN_POINT ( 'NONE',  ( -100.4473319220196572, -88.51150572225307656, -3.000000000000000000 ) ) ;
#738 = ORIENTED_EDGE ( 'NONE', *, *, #572, .F. ) ;
#739 = DIRECTION ( 'NONE',  ( -0.000000000000000000, -0.000000000000000000, -1.000000000000000000 ) ) ;
#740 = DIRECTION ( 'NONE',  ( 0.000000000000000000, 0.000000000000000000, -1.000000000000000000 ) ) ;
#741 = APPROVAL_STATUS ( 'not_yet_approved' ) ;
#742 = ORIENTED_EDGE ( 'NONE', *, *, #348, .T. ) ;
#743 = CIRCLE ( 'NONE', #877, 6.500000000000005329 ) ;
#744 = DIRECTION ( 'NONE',  ( 0.000000000000000000, 0.000000000000000000, -1.000000000000000000 ) ) ;
#745 = VECTOR ( 'NONE', #128, 1000.000000000000000 ) ;
#746 = AXIS2_PLACEMENT_3D ( 'NONE', #542, #471, #676 ) ;
#747 = EDGE_CURVE ( 'NONE', #354, #104, #116, .T. ) ;
#748 = DIRECTION ( 'NONE',  ( 0.000000000000000000, -0.000000000000000000, -1.000000000000000000 ) ) ;
#749 = PERSON_AND_ORGANIZATION ( #735, #588 ) ;
#750 = DIRECTION ( 'NONE',  ( 0.000000000000000000, 0.000000000000000000, -1.000000000000000000 ) ) ;
#751 = ORIENTED_EDGE ( 'NONE', *, *, #271, .F. ) ;
#752 = CARTESIAN_POINT ( 'NONE',  ( -106.9473319220196572, -88.51150572225307656, -2.500000000000003997 ) ) ;
#753 = LINE ( 'NONE', #231, #930 ) ;
#754 = CARTESIAN_POINT ( 'NONE',  ( -79.55523562282148475, -74.51150572225307656, 2.000000000000000000 ) ) ;
#755 = ORIENTED_EDGE ( 'NONE', *, *, #939, .T. ) ;
#756 = PRODUCT_RELATED_PRODUCT_CATEGORY ( 'detail', '', ( #839 ) ) ;
#757 = ORIENTED_EDGE ( 'NONE', *, *, #133, .F. ) ;
#758 = CARTESIAN_POINT ( 'NONE',  ( -2.724973834205527653E-14, -74.51150572225310498, -2.000000000000000000 ) ) ;
#759 = DIRECTION ( 'NONE',  ( 1.000000000000000000, 0.000000000000000000, 0.000000000000000000 ) ) ;
#760 = EDGE_LOOP ( 'NONE', ( #444, #675 ) ) ;
#761 = EDGE_CURVE ( 'NONE', #148, #880, #897, .T. ) ;
#762 = CARTESIAN_POINT ( 'NONE',  ( -55.51117249115417707, -86.99856164706017125, 3.000000000000000000 ) ) ;
#763 = DIRECTION ( 'NONE',  ( -0.000000000000000000, -0.000000000000000000, -1.000000000000000000 ) ) ;
#764 = CONICAL_SURFACE ( 'NONE', #344, 6.500000000000005329, 0.7853981633974543852 ) ;
#765 = ORIENTED_EDGE ( 'NONE', *, *, #211, .T. ) ;
#766 = EDGE_CURVE ( 'NONE', #660, #104, #453, .T. ) ;
#767 = ORIENTED_EDGE ( 'NONE', *, *, #415, .T. ) ;
#768 = DIRECTION ( 'NONE',  ( -0.000000000000000000, -0.000000000000000000, -1.000000000000000000 ) ) ;
#769 = CYLINDRICAL_SURFACE ( 'NONE', #79, 6.000000000000005329 ) ;
#770 = DIRECTION ( 'NONE',  ( -1.000000000000000000, 0.000000000000000000, 0.000000000000000000 ) ) ;
#771 = EDGE_LOOP ( 'NONE', ( #399, #933, #776, #426 ) ) ;
#772 = FACE_OUTER_BOUND ( 'NONE', #711, .T. ) ;
#773 = LINE ( 'NONE', #910, #780 ) ;
#774 = EDGE_CURVE ( 'NONE', #854, #169, #681, .T. ) ;
#775 = FACE_OUTER_BOUND ( 'NONE', #922, .T. ) ;
#776 = ORIENTED_EDGE ( 'NONE', *, *, #425, .F. ) ;
#777 = DIRECTION ( 'NONE',  ( -0.000000000000000000, -0.000000000000000000, -1.000000000000000000 ) ) ;
#778 = AXIS2_PLACEMENT_3D ( 'NONE', #154, #820, #362 ) ;
#779 = VECTOR ( 'NONE', #195, 1000.000000000000000 ) ;
#780 = VECTOR ( 'NONE', #179, 1000.000000000000000 ) ;
#781 = DIRECTION ( 'NONE',  ( -0.7071067811865517916, 8.659560562354985860E-17, 0.7071067811865432429 ) ) ;
#782 = LOCAL_TIME ( 14, 58, 56.00000000000000000, #595 ) ;
#783 = ORIENTED_EDGE ( 'NONE', *, *, #597, .T. ) ;
#784 = DIRECTION ( 'NONE',  ( 1.000000000000000000, -3.657118196434064207E-16, 0.000000000000000000 ) ) ;
#785 = CYLINDRICAL_SURFACE ( 'NONE', #342, 2.249999999999849454 ) ;
#786 = ORIENTED_EDGE ( 'NONE', *, *, #4, .F. ) ;
#787 = CARTESIAN_POINT ( 'NONE',  ( -101.4814087114246206, -77.54855979262835319, -3.000000000000000000 ) ) ;
#788 = DIRECTION ( 'NONE',  ( 0.000000000000000000, 0.000000000000000000, 1.000000000000000000 ) ) ;
#789 = EDGE_CURVE ( 'NONE', #160, #14, #512, .T. ) ;
#790 = VERTEX_POINT ( 'NONE', #672 ) ;
#791 = CARTESIAN_POINT ( 'NONE',  ( -55.58781355654533485, -87.18329428385102631, 3.000000000000000000 ) ) ;
#792 = AXIS2_PLACEMENT_3D ( 'NONE', #175, #472, #849 ) ;
#793 = CIRCLE ( 'NONE', #468, 34.99999999999994316 ) ;
#794 = CC_DESIGN_APPROVAL ( #207, ( #180 ) ) ;
#795 = ORIENTED_EDGE ( 'NONE', *, *, #324, .T. ) ;
#796 = CARTESIAN_POINT ( 'NONE',  ( -96.10523708715662394, -97.36864857939595197, 3.000000000000000000 ) ) ;
#797 = ORIENTED_EDGE ( 'NONE', *, *, #52, .F. ) ;
#798 = DIRECTION ( 'NONE',  ( -0.000000000000000000, -0.000000000000000000, -1.000000000000000000 ) ) ;
#799 = EDGE_CURVE ( 'NONE', #654, #601, #394, .T. ) ;
#800 = ORIENTED_EDGE ( 'NONE', *, *, #440, .T. ) ;
#801 = LINE ( 'NONE', #214, #293 ) ;
#802 = DIRECTION ( 'NONE',  ( -0.000000000000000000, -0.000000000000000000, -1.000000000000000000 ) ) ;
#803 = ADVANCED_FACE ( 'NONE', ( #886 ), #225, .F. ) ;
#804 = DIRECTION ( 'NONE',  ( 1.000000000000000000, 0.000000000000000000, 0.000000000000000000 ) ) ;
#805 = ORIENTED_EDGE ( 'NONE', *, *, #732, .T. ) ;
#806 = VECTOR ( 'NONE', #814, 1000.000000000000000 ) ;
#807 = VECTOR ( 'NONE', #739, 1000.000000000000000 ) ;
#808 = LINE ( 'NONE', #210, #203 ) ;
#809 = FACE_OUTER_BOUND ( 'NONE', #874, .T. ) ;
#810 = ORIENTED_EDGE ( 'NONE', *, *, #825, .T. ) ;
#811 = DIRECTION ( 'NONE',  ( -0.000000000000000000, -0.000000000000000000, -1.000000000000000000 ) ) ;
#812 = CARTESIAN_POINT ( 'NONE',  ( -72.30467813820297351, -74.51150572225307656, -3.000000000000000000 ) ) ;
#813 = ORIENTED_EDGE ( 'NONE', *, *, #799, .F. ) ;
#814 = DIRECTION ( 'NONE',  ( 0.000000000000000000, 0.000000000000000000, 1.000000000000000000 ) ) ;
#815 = CARTESIAN_POINT ( 'NONE',  ( -112.9473319220196714, -88.51150572225307656, 2.499999999999976019 ) ) ;
#816 = DATE_AND_TIME ( #525, #782 ) ;
#817 = ORIENTED_EDGE ( 'NONE', *, *, #260, .T. ) ;
#818 = DIRECTION ( 'NONE',  ( -0.7071067811865517916, 0.000000000000000000, -0.7071067811865432429 ) ) ;
#819 = CIRCLE ( 'NONE', #129, 0.1999999999999987899 ) ;
#820 = DIRECTION ( 'NONE',  ( 0.000000000000000000, 0.000000000000000000, 1.000000000000000000 ) ) ;
#821 = ORIENTED_EDGE ( 'NONE', *, *, #117, .F. ) ;
#822 = ORIENTED_EDGE ( 'NONE', *, *, #700, .T. ) ;
#823 = DIRECTION ( 'NONE',  ( -0.000000000000000000, 0.000000000000000000, 1.000000000000000000 ) ) ;
#824 = CARTESIAN_POINT ( 'NONE',  ( -72.30467813820297351, -77.51150572225309077, 3.000000000000000000 ) ) ;
#825 = EDGE_CURVE ( 'NONE', #197, #388, #374, .T. ) ;
#826 = FACE_BOUND ( 'NONE', #760, .T. ) ;
#827 = ORIENTED_EDGE ( 'NONE', *, *, #730, .T. ) ;
#828 = CARTESIAN_POINT ( 'NONE',  ( -55.40359269950464949, -86.82995978340308341, 3.000000000000000000 ) ) ;
#829 = DIRECTION ( 'NONE',  ( 0.000000000000000000, -0.000000000000000000, -1.000000000000000000 ) ) ;
#830 = EDGE_CURVE ( 'NONE', #148, #213, #422, .T. ) ;
#831 = EDGE_LOOP ( 'NONE', ( #596, #464, #224, #550, #726, #200, #119, #708 ) ) ;
#832 = ORIENTED_EDGE ( 'NONE', *, *, #420, .F. ) ;
#833 = CARTESIAN_POINT ( 'NONE',  ( -106.9473319220196572, -88.51150572225307656, -3.000000000000000000 ) ) ;
#834 = AXIS2_PLACEMENT_3D ( 'NONE', #366, #78, #876 ) ;
#835 = CYLINDRICAL_SURFACE ( 'NONE', #156, 109.0000000000000000 ) ;
#836 = CIRCLE ( 'NONE', #546, 2.249999999999849454 ) ;
#837 = AXIS2_PLACEMENT_3D ( 'NONE', #73, #655, #77 ) ;
#838 = ORIENTED_EDGE ( 'NONE', *, *, #52, .T. ) ;
#839 = PRODUCT ( '0 - FTCM1130-011', '0 - FTCM1130-011', '', ( #91 ) ) ;
#840 = VERTEX_POINT ( 'NONE', #312 ) ;
#841 = CYLINDRICAL_SURFACE ( 'NONE', #483, 2.249999999999876987 ) ;
#842 = DIRECTION ( 'NONE',  ( -1.000000000000000000, 0.000000000000000000, 0.000000000000000000 ) ) ;
#843 = CARTESIAN_POINT ( 'NONE',  ( -120.9473319220196572, -88.51150572225307656, 3.000000000000000000 ) ) ;
#844 = ORIENTED_EDGE ( 'NONE', *, *, #26, .T. ) ;
#845 = EDGE_CURVE ( 'NONE', #474, #790, #904, .T. ) ;
#846 = LINE ( 'NONE', #331, #233 ) ;
#847 = CARTESIAN_POINT ( 'NONE',  ( -55.51117249115417707, -86.99856164706017125, 3.000000000000000000 ) ) ;
#848 = ORIENTED_EDGE ( 'NONE', *, *, #747, .F. ) ;
#849 = DIRECTION ( 'NONE',  ( -1.000000000000000000, 0.000000000000000000, 0.000000000000000000 ) ) ;
#850 = AXIS2_PLACEMENT_3D ( 'NONE', #16, #530, #581 ) ;
#851 = CIRCLE ( 'NONE', #55, 109.0000000000000000 ) ;
#852 = LOCAL_TIME ( 14, 58, 56.00000000000000000, #591 ) ;
#853 = CARTESIAN_POINT ( 'NONE',  ( 0.000000000000000000, 0.000000000000000000, -2.000000000000000000 ) ) ;
#854 = VERTEX_POINT ( 'NONE', #173 ) ;
#855 = DIRECTION ( 'NONE',  ( 0.000000000000000000, 0.000000000000000000, -1.000000000000000000 ) ) ;
#856 = EDGE_CURVE ( 'NONE', #911, #93, #105, .T. ) ;
#857 = EDGE_CURVE ( 'NONE', #396, #547, #330, .T. ) ;
#858 = CARTESIAN_POINT ( 'NONE',  ( -103.4892988704185370, -81.57576441983708548, 0.000000000000000000 ) ) ;
#859 = ORIENTED_EDGE ( 'NONE', *, *, #199, .F. ) ;
#860 = DIRECTION ( 'NONE',  ( -1.000000000000000000, 0.000000000000000000, 0.000000000000000000 ) ) ;
#861 = LINE ( 'NONE', #186, #292 ) ;
#862 = VERTEX_POINT ( 'NONE', #460 ) ;
#863 = CARTESIAN_POINT ( 'NONE',  ( -109.6197156828022514, -78.87520119016677711, 0.000000000000000000 ) ) ;
#864 = CIRCLE ( 'NONE', #155, 0.2000000000000057288 ) ;
#865 = AXIS2_PLACEMENT_3D ( 'NONE', #238, #536, #842 ) ;
#866 = VECTOR ( 'NONE', #728, 1000.000000000000000 ) ;
#867 = APPLICATION_CONTEXT ( 'configuration controlled 3d designs of mechanical parts and assemblies' ) ;
#868 = LOCAL_TIME ( 14, 58, 56.00000000000000000, #888 ) ;
#869 = ORIENTED_EDGE ( 'NONE', *, *, #590, .F. ) ;
#870 = CARTESIAN_POINT ( 'NONE',  ( -106.9473319220196572, -88.51150572225307656, -3.000000000000000000 ) ) ;
#871 = VERTEX_POINT ( 'NONE', #94 ) ;
#872 = DIRECTION ( 'NONE',  ( 0.000000000000000000, 0.000000000000000000, -1.000000000000000000 ) ) ;
#873 = EDGE_CURVE ( 'NONE', #14, #495, #881, .T. ) ;
#874 = EDGE_LOOP ( 'NONE', ( #24, #533, #51, #66, #364, #473, #608 ) ) ;
#875 = LINE ( 'NONE', #152, #264 ) ;
#876 = DIRECTION ( 'NONE',  ( 1.000000000000000000, 0.000000000000000000, 0.000000000000000000 ) ) ;
#877 = AXIS2_PLACEMENT_3D ( 'NONE', #411, #706, #917 ) ;
#878 = AXIS2_PLACEMENT_3D ( 'NONE', #333, #125, #921 ) ;
#879 = PERSON_AND_ORGANIZATION ( #735, #588 ) ;
#880 = VERTEX_POINT ( 'NONE', #28 ) ;
#881 = CIRCLE ( 'NONE', #10, 12.24999999999987210 ) ;
#882 = CARTESIAN_POINT ( 'NONE',  ( -106.9473319220196572, -88.51150572225307656, -3.000000000000000000 ) ) ;
#883 = DIRECTION ( 'NONE',  ( 0.000000000000000000, 0.000000000000000000, 1.000000000000000000 ) ) ;
#884 =( LENGTH_UNIT ( ) NAMED_UNIT ( * ) SI_UNIT ( .MILLI., .METRE. ) );
#885 = ORIENTED_EDGE ( 'NONE', *, *, #774, .F. ) ;
#886 = FACE_OUTER_BOUND ( 'NONE', #316, .T. ) ;
#887 = CARTESIAN_POINT ( 'NONE',  ( -106.9473319220196572, -88.51150572225307656, 3.000000000000000000 ) ) ;
#888 = COORDINATED_UNIVERSAL_TIME_OFFSET ( 0, 0, .AHEAD. ) ;
#889 = ORIENTED_EDGE ( 'NONE', *, *, #580, .F. ) ;
#890 = FACE_OUTER_BOUND ( 'NONE', #343, .T. ) ;
#891 = DIRECTION ( 'NONE',  ( -0.000000000000000000, -0.000000000000000000, -1.000000000000000000 ) ) ;
#892 = SECURITY_CLASSIFICATION_LEVEL ( 'unclassified' ) ;
#893 = ORIENTED_EDGE ( 'NONE', *, *, #766, .F. ) ;
#894 = AXIS2_PLACEMENT_3D ( 'NONE', #53, #720, #427 ) ;
#895 = ORIENTED_EDGE ( 'NONE', *, *, #700, .F. ) ;
#896 = DIRECTION ( 'NONE',  ( -1.000000000000000000, 3.657118196434064207E-16, 0.000000000000000000 ) ) ;
#897 = CIRCLE ( 'NONE', #702, 103.0000000000000000 ) ;
#898 = EDGE_CURVE ( 'NONE', #880, #388, #475, .T. ) ;
#899 = ADVANCED_FACE ( 'NONE', ( #919 ), #401, .T. ) ;
#900 = VECTOR ( 'NONE', #88, 1000.000000000000000 ) ;
#901 = DIRECTION ( 'NONE',  ( -0.000000000000000000, -0.000000000000000000, -1.000000000000000000 ) ) ;
#902 = CARTESIAN_POINT ( 'NONE',  ( 0.000000000000000000, 0.000000000000000000, 0.000000000000000000 ) ) ;
#903 = CARTESIAN_POINT ( 'NONE',  ( -55.51117249115417707, -86.99856164706017125, 2.000000000000000000 ) ) ;
#904 = LINE ( 'NONE', #164, #514 ) ;
#905 = EDGE_CURVE ( 'NONE', #109, #880, #141, .T. ) ;
#906 = DIRECTION ( 'NONE',  ( 0.000000000000000000, 0.000000000000000000, 1.000000000000000000 ) ) ;
#907 = CARTESIAN_POINT ( 'NONE',  ( 0.000000000000000000, 0.000000000000000000, -3.000000000000000000 ) ) ;
#908 = ORIENTED_EDGE ( 'NONE', *, *, #268, .F. ) ;
#909 = CARTESIAN_POINT ( 'NONE',  ( -69.39621012341864059, -84.31373565740241816, -2.000000000000000000 ) ) ;
#910 = CARTESIAN_POINT ( 'NONE',  ( -2.724973834205527653E-14, -74.51150572225310498, 3.000000000000000000 ) ) ;
#911 = VERTEX_POINT ( 'NONE', #404 ) ;
#912 = EDGE_LOOP ( 'NONE', ( #786, #885, #822, #334 ) ) ;
#913 = DIRECTION ( 'NONE',  ( -0.000000000000000000, 0.000000000000000000, 1.000000000000000000 ) ) ;
#914 = CIRCLE ( 'NONE', #865, 2.249999999999876987 ) ;
#915 = DIRECTION ( 'NONE',  ( -0.000000000000000000, -0.000000000000000000, 1.000000000000000000 ) ) ;
#916 = CC_DESIGN_APPROVAL ( #68, ( #606 ) ) ;
#917 = DIRECTION ( 'NONE',  ( 1.000000000000000000, 0.000000000000000000, 0.000000000000000000 ) ) ;
#918 = ADVANCED_FACE ( 'NONE', ( #551 ), #684, .T. ) ;
#919 = FACE_OUTER_BOUND ( 'NONE', #126, .T. ) ;
#920 = CARTESIAN_POINT ( 'NONE',  ( -96.10523708715662394, -97.36864857939595197, -3.000000000000000000 ) ) ;
#921 = DIRECTION ( 'NONE',  ( 1.000000000000000000, 0.000000000000000000, 0.000000000000000000 ) ) ;
#922 = EDGE_LOOP ( 'NONE', ( #34, #434, #592, #267 ) ) ;
#923 = DIRECTION ( 'NONE',  ( -1.000000000000000000, 0.000000000000000000, 0.000000000000000000 ) ) ;
#924 = DIRECTION ( 'NONE',  ( 1.000000000000000000, 0.000000000000000000, -0.000000000000000000 ) ) ;
#925 = VECTOR ( 'NONE', #108, 1000.000000000000000 ) ;
#926 = ORIENTED_EDGE ( 'NONE', *, *, #117, .T. ) ;
#927 = DIRECTION ( 'NONE',  ( -1.000000000000000000, 0.000000000000000000, 0.000000000000000000 ) ) ;
#928 = ADVANCED_FACE ( 'NONE', ( #772 ), #317, .T. ) ;
#929 = MANIFOLD_SOLID_BREP ( 'Cut-Extrude2', #185 ) ;
#930 = VECTOR ( 'NONE', #226, 1000.000000000000000 ) ;
#931 = CIRCLE ( 'NONE', #218, 7.750000000000145661 ) ;
#932 = CARTESIAN_POINT ( 'NONE',  ( -106.9473319220196572, -88.51150572225307656, 2.499999999999976019 ) ) ;
#933 = ORIENTED_EDGE ( 'NONE', *, *, #395, .F. ) ;
#934 = DIRECTION ( 'NONE',  ( -1.000000000000000000, 0.000000000000000000, 0.000000000000000000 ) ) ;
#935 = ADVANCED_FACE ( 'NONE', ( #617 ), #841, .F. ) ;
#936 = CARTESIAN_POINT ( 'NONE',  ( -110.2210020289782761, -76.70703267044756046, 0.000000000000000000 ) ) ;
#937 = EDGE_LOOP ( 'NONE', ( #376, #18, #412, #607, #683 ) ) ;
#938 = DIRECTION ( 'NONE',  ( -1.000000000000000000, 0.000000000000000000, 0.000000000000000000 ) ) ;
#939 = EDGE_CURVE ( 'NONE', #338, #570, #358, .T. ) ;
#940 = VERTEX_POINT ( 'NONE', #754 ) ;
#941 = CARTESIAN_POINT ( 'NONE',  ( -55.58781355654533485, -87.18329428385102631, 2.000000000000000000 ) ) ;
#942 = AXIS2_PLACEMENT_3D ( 'NONE', #337, #262, #633 ) ;
#943 = EDGE_CURVE ( 'NONE', #287, #452, #652, .T. ) ;
#944 = AXIS2_PLACEMENT_3D ( 'NONE', #661, #435, #230 ) ;
#945 = AXIS2_PLACEMENT_3D ( 'NONE', #909, #39, #804 ) ;
#946 = ORIENTED_EDGE ( 'NONE', *, *, #653, .T. ) ;
#947 = CARTESIAN_POINT ( 'NONE',  ( -55.51117249115417707, -86.99856164706017125, 3.000000000000000000 ) ) ;
#948 = VERTEX_POINT ( 'NONE', #737 ) ;
#949 = DIRECTION ( 'NONE',  ( 1.000000000000000000, 0.000000000000000000, 0.000000000000000000 ) ) ;
#950 = CARTESIAN_POINT ( 'NONE',  ( -106.9473319220196572, -88.51150572225307656, 3.000000000000000000 ) ) ;
ENDSEC;
END-ISO-10303-21;
